<?xml version="1.0" encoding="UTF-8"?>
<svg width="1821px" height="211px" viewBox="0 0 1821 211" version="1.1" xmlns="http://www.w3.org/2000/svg" xmlns:xlink="http://www.w3.org/1999/xlink">
    <!-- Generator: Sketch 48.2 (47327) - http://www.bohemiancoding.com/sketch -->
    <title>Group</title>
    <desc>Created with Sketch.</desc>
    <defs>
        <path d="M33.5244446,0.4722 C32.2096873,0.828154679 30.904927,1.24108801 29.6141617,1.711 C28.3241545,2.18 27.0481475,2.707 25.7881405,3.289 C24.5291335,3.872 23.2871267,4.51 22.0661199,5.204 C20.8441131,5.897 19.6431065,6.645 18.4671,7.448 C16.4000885,8.858 14.4580778,10.401 12.6530678,12.061 C10.8480578,13.72 9.1800486,15.497 7.66004019,17.374 C6.13903177,19.252 4.76602417,21.231 3.55101745,23.295 C2.33701073,25.36 1.28200489,27.51 0.398000001,29.729 L3.58601764,33.736 C4.46702252,31.527 5.51502832,29.386 6.723035,27.331 C7.93004168,25.277 9.29504923,23.308 10.8070576,21.439 C12.320066,19.571 13.9790752,17.803 15.7740851,16.151 C17.570095,14.501 19.5011057,12.965 21.5581171,11.563 C22.7291236,10.765 23.9231302,10.019 25.1391369,9.33 C26.3541436,8.641 27.5891505,8.006 28.8421574,7.426 C30.0961643,6.847 31.3661714,6.324 32.6501785,5.856 C33.9341202,5.39002373 35.2320606,4.97904186 36.541,4.62605393 L36.541,33.7362 L0.3978,33.7362 L0.3978,0.4722 L33.5244446,0.4722 Z M33.5251452,0.4722 L36.541,4.626 L33.5251452,0.4722 Z" id="path-1"></path>
        <path d="M3.619,5.025 L0.661,0.857 C1.143,0.858 1.625,0.866 2.108,0.882 C2.59,0.897 3.073,0.921 3.555,0.953 C4.037,0.984 4.519,1.023 5,1.07 C5.482,1.118 5.962,1.174 6.443,1.237 C9.28,1.614 12.01,2.255 14.604,3.148 C17.202,4.042 19.664,5.186 21.964,6.564 C24.267,7.946 26.407,9.562 28.356,11.398 C30.307,13.235 32.067,15.294 33.608,17.554 L36.419,21.67 C34.885,19.418 33.132,17.368 31.188,15.538 C29.248,13.709 27.118,12.098 24.826,10.722 C22.535,9.347 20.083,8.206 17.498,7.315 C14.915,6.425 12.198,5.783 9.374,5.407 C8.896,5.344 8.418,5.288 7.938,5.241 C7.459,5.194 6.979,5.154 6.5,5.122 C6.02,5.091 5.539,5.067 5.06,5.051 C4.579,5.035 4.099,5.026 3.619,5.025 Z" id="path-3"></path>
        <path d="M0.174,0.829 C0.174,0.829 0.174,0.829 0.174,0.829 L2.987,5.101 C3.726,5.403 4.458,5.719 5.184,6.047 C5.909,6.376 6.628,6.719 7.34,7.075 C8.052,7.431 8.756,7.801 9.453,8.185 C10.151,8.569 10.841,8.967 11.524,9.378 C13.34,10.473 15.086,11.653 16.757,12.915 C18.43,14.179 20.027,15.525 21.548,16.951 C23.07,18.378 24.515,19.886 25.879,21.471 C27.245,23.057 28.531,24.722 29.733,26.463 C29.829,26.601 29.926,26.741 30.02,26.881 C30.115,27.022 30.21,27.161 30.304,27.303 C30.397,27.444 30.491,27.584 30.583,27.726 C30.6747667,27.8666424 30.7665333,28.0082797 30.8583,28.1499196 L0.174,28.1509 L0.174,0.829 Z" id="path-5"></path>
        <path d="M83.813,5.303 L80.898,1.025 C79.805,0.974 78.71,0.949 77.615,0.949 C76.897,0.949 76.178,0.96 75.459,0.982 C73.645,1.036 71.83,1.16 70.015,1.352 C68.201,1.545 66.388,1.807 64.578,2.137 C62.767,2.467 60.96,2.866 59.156,3.333 C56.954,3.904 54.779,4.571 52.637,5.331 C50.495,6.091 48.385,6.946 46.311,7.893 C44.237,8.84 42.198,9.879 40.198,11.008 C38.198,12.139 36.237,13.359 34.318,14.67 C32.399,15.98 30.546,17.363 28.762,18.816 C26.978,20.269 25.262,21.792 23.619,23.383 C21.975,24.975 20.402,26.633 18.904,28.358 C17.405,30.082 15.98,31.871 14.632,33.724 C13.238,35.642 11.94,37.605 10.743,39.614 C9.545,41.623 8.445,43.677 7.447,45.77 C6.449,47.864 5.551,50 4.757,52.174 C3.962,54.348 3.27,56.559 2.682,58.806 C2.094,61.053 1.62,63.3 1.261,65.543 C0.901,67.789 0.655,70.03 0.525,72.263 C0.455731994,73.4368828 0.418406973,74.6082873 0.412880434,75.7769244 L0.412880435,76.3861559 C0.416923675,77.2406505 0.437982407,78.0936363 0.476,78.945 C0.575,81.164 0.79,83.373 1.121,85.565 C1.44,87.688 1.864,89.774 2.392,91.82 C2.92,93.87 3.551,95.88 4.286,97.848 C5.02,99.817 5.858,101.744 6.797,103.625 C7.737,105.508 8.78,107.344 9.922,109.131 C10.334,109.776 10.757,110.412 11.193,111.037 C11.627,111.663 12.073,112.279 12.53,112.886 C12.988,113.492 13.456,114.09 13.935,114.677 C14.414,115.264 14.904,115.843 15.405,116.41 L18.6989118,120.1459 L83.813,120.1459 L83.8128,5.30299069 L83.813,5.303 Z" id="path-7"></path>
        <path d="M0.971098488,0.827114687 C0.971,0.827 0.971,0.827 0.971,0.827 C2.051,2.09 3.13,3.352 4.208,4.615 C4.509,4.968 4.817,5.317 5.129,5.661 C5.442,6.006 5.759,6.346 6.083,6.682 C6.406,7.016 6.734,7.348 7.067,7.673 C7.401,8 7.739,8.322 8.084,8.639 L0.9711,8.6387 L0.9711,0.827114687 L0.971098488,0.827114687 Z" id="path-9"></path>
        <path d="M0.988321926,0.4995 L3.81,4.882 C6.332,5.353 8.812,5.926 11.247,6.599 C13.684,7.273 16.075,8.048 18.42,8.923 C20.765,9.799 23.064,10.776 25.311,11.851 C27.56,12.928 29.759,14.106 31.904,15.382 C34.36,16.844 36.718,18.42 38.979,20.106 C41.243,21.795 43.406,23.595 45.466,25.504 C47.53,27.415 49.49,29.435 51.343,31.559 C53.197,33.687 54.945,35.921 56.581,38.257 C56.837,38.624 57.09,38.991 57.339,39.361 C57.589,39.73 57.835,40.101 58.078,40.474 C58.321,40.847 58.561,41.222 58.798,41.598 C59.0348963,41.9748351 59.2677961,42.3526693 59.4976982,42.7335 L0.9877,42.7335 L0.9877,0.4995 L0.988321926,0.4995 Z" id="path-11"></path>
        <path d="M99.0384011,0.0615 C97.4062674,0.156473464 95.7741354,0.291310297 94.143,0.468 C92.509,0.645 90.876,0.863 89.244,1.122 C87.612,1.382 85.982,1.682 84.353,2.024 C82.725,2.365 81.1,2.749 79.475,3.173 C76.521,3.946 73.607,4.846 70.734,5.871 C67.864,6.896 65.036,8.046 62.256,9.32 C59.477,10.592 56.745,11.988 54.065,13.505 C51.384,15.021 48.756,16.66 46.183,18.417 C43.611,20.174 41.127,22.029 38.735,23.975 C36.343,25.924 34.042,27.965 31.837,30.097 C29.631,32.228 27.521,34.451 25.508,36.761 C23.496,39.071 21.582,41.469 19.769,43.95 C17.894,46.519 16.148,49.153 14.536,51.844 C12.922,54.536 11.441,57.288 10.093,60.094 C8.746,62.903 7.533,65.766 6.457,68.679 C5.381,71.595 4.441,74.562 3.642,77.576 C2.842,80.591 2.194,83.606 1.699,86.619 C1.203,89.635 0.859,92.645 0.67,95.648 C0.560407334,97.3818713 0.50205082,99.1124157 0.495122361,100.839057 L0.495122361,101.536573 C0.49927316,102.570185 0.521885292,103.602368 0.563,104.633 C0.682,107.619 0.955,110.592 1.384,113.545 C1.799,116.403 2.355,119.215 3.05,121.974 C3.746,124.738 4.58,127.45 5.553,130.105 C6.527,132.764 7.64,135.366 8.889,137.908 C10.14,140.452 11.529,142.936 13.053,145.354 C13.72,146.411 14.41,147.451 15.122,148.471 C15.833,149.493 16.567,150.495 17.323,151.478 C18.079,152.462 18.857,153.427 19.657,154.372 C20.457,155.318 21.279,156.244 22.121,157.15 L25.508,160.792 C24.668,159.89 23.85,158.967 23.053,158.025 C22.257,157.083 21.482,156.122 20.729,155.143 C19.975,154.164 19.245,153.166 18.535,152.149 C17.826,151.132 17.139,150.097 16.475,149.044 C14.956,146.635 13.572,144.163 12.324,141.629 C11.08,139.098 9.971,136.507 8.999,133.858 C8.03,131.215 7.196,128.514 6.501,125.762 C5.808,123.015 5.253,120.215 4.838,117.369 C4.409,114.428 4.135,111.469 4.015,108.495 C3.895,105.525 3.929,102.542 4.115,99.549 C4.302,96.56 4.641,93.562 5.133,90.561 C5.624,87.561 6.267,84.559 7.061,81.556 C7.855,78.557 8.788,75.604 9.857,72.701 C10.927,69.801 12.132,66.951 13.472,64.156 C14.81,61.362 16.283,58.622 17.887,55.942 C19.492,53.264 21.227,50.643 23.092,48.085 C24.895,45.617 26.798,43.23 28.8,40.93 C30.801,38.633 32.901,36.42 35.095,34.299 C37.289,32.178 39.577,30.146 41.958,28.209 C44.337,26.27 46.809,24.426 49.368,22.677 C51.928,20.93 54.543,19.301 57.21,17.791 C59.877,16.283 62.596,14.894 65.361,13.629 C68.128,12.363 70.941,11.219 73.798,10.202 C76.656,9.182 79.557,8.287 82.497,7.52 C84.113,7.098 85.731,6.719 87.351,6.379 C88.972,6.04 90.595,5.742 92.218,5.485 C93.843,5.227 95.468,5.011 97.094,4.837 C98.7209,4.66101082 100.3478,4.52701647 101.9747,4.43501696 L101.9747,4.43455184 L99.0473347,0.0615 L99.038401,0.0615 Z" id="path-13"></path>
        <path d="M0.919,0.295102658 C0.918666663,0.294735108 0.91833333,0.294367556 0.918,0.294 C2.032,1.525 3.145,2.755 4.257,3.985 C4.703,4.477 5.156,4.963 5.615,5.443 C6.076,5.924 6.543,6.397 7.019,6.865 C7.493,7.332 7.975,7.793 8.465,8.247 C8.95396364,8.70196617 9.4509261,9.14993338 9.95388781,9.59190141 L0.919,9.5919 L0.919,0.295102658 Z" id="path-15"></path>
        <path d="M48.666,8.952 C47.444,5.875 45.914,2.954 44.102,0.227 C45.021,1.61 45.94,2.993 46.859,4.376 C48.665,7.093 50.19,10.002 51.408,13.067 C52.627,16.136 53.539,19.36 54.115,22.701 C54.692,26.047 54.932,29.509 54.809,33.049 C54.685,36.595 54.196,40.216 53.315,43.876 C51.881,49.832 49.519,55.432 46.41,60.547 C43.3,65.668 39.446,70.299 35.035,74.307 C30.624,78.318 25.661,81.704 20.334,84.338 C15.009,86.969 9.326,88.848 3.474,89.846 L0.458,86.104 C6.34,85.097 12.051,83.208 17.402,80.561 C22.757,77.913 27.747,74.508 32.182,70.477 C36.615,66.448 40.491,61.794 43.62,56.648 C46.746,51.508 49.124,45.881 50.567,39.898 C51.455,36.221 51.948,32.582 52.074,29.022 C52.2,25.466 51.96,21.988 51.382,18.627 C50.806,15.272 49.891,12.035 48.666,8.952 Z" id="path-17"></path>
        <path d="M87.046,0.234 C89.492,4.151 91.552,8.323 93.191,12.703 C94.835,17.093 96.055,21.69 96.817,26.445 C97.58,31.21 97.881,36.132 97.685,41.161 C97.489,46.199 96.793,51.344 95.56,56.542 C93.052,67.127 88.552,76.964 82.533,85.716 C76.505,94.481 68.963,102.143 60.392,108.365 C51.821,114.588 42.234,119.362 32.119,122.36 C22.022,125.352 11.416,126.572 0.787,125.702 L3.908,129.314 C14.486,130.185 25.041,128.976 35.087,126.003 C45.151,123.024 54.688,118.277 63.214,112.088 C71.741,105.898 79.241,98.276 85.235,89.553 C91.22,80.844 95.692,71.055 98.184,60.519 C99.408,55.345 100.098,50.224 100.291,45.208 C100.483,40.201 100.181,35.302 99.419,30.557 C98.659,25.823 97.442,21.245 95.804,16.874 C94.17,12.512 92.117,8.357 89.681,4.456 L87.0462496,0.2344 L100.347407,0.234 L100.347407,129.590911 L0.7868,129.590911 L0.7868,0.234 L87.0462496,0.2344 L87.046,0.234 Z" id="path-19"></path>
        <polygon id="path-21" points="119.258121 165 0.7823 165 0.7823 0.2962 119.258121 0.2962"></polygon>
        <polygon id="path-23" points="0 306 1926.66953 306 1926.66953 1.34581991 0 1.34581991"></polygon>
        <polygon id="path-25" points="0 306 1926.66953 306 1926.66953 1.34581991 0 1.34581991"></polygon>
        <polygon id="path-27" points="0 306 1926.66953 306 1926.66953 1.34581991 0 1.34581991"></polygon>
        <polygon id="path-29" points="0 306 1926.66953 306 1926.66953 1.34581991 0 1.34581991"></polygon>
        <polygon id="path-31" points="0 306 1926.66953 306 1926.66953 1.34581991 0 1.34581991"></polygon>
        <polygon id="path-33" points="0 306 1926.66953 306 1926.66953 1.34581991 0 1.34581991"></polygon>
        <polygon id="path-35" points="0 306 1926.66953 306 1926.66953 1.34581991 0 1.34581991"></polygon>
        <polygon id="path-37" points="0 306 1926.66953 306 1926.66953 1.34581991 0 1.34581991"></polygon>
        <polygon id="path-39" points="0 306 1926.66953 306 1926.66953 1.34581991 0 1.34581991"></polygon>
    </defs>
    <g id="Page-1" stroke="none" stroke-width="1" fill="none" fill-rule="evenodd">
        <g id="Group" transform="translate(-106.000000, -45.000000)">
            <polygon id="Fill-1" fill="#0E1627" fill-rule="nonzero" points="218.8654 45.0003 216.0464 56.1333 218.9754 60.5073 221.7744 49.4233"></polygon>
            <polygon id="Fill-2" fill="#F5F5F5" fill-rule="nonzero" points="224.6883 67.9963 227.5833 72.3243 224.8133 83.3753 221.8983 79.0973"></polygon>
            <polygon id="Fill-3" fill="#474747" fill-rule="nonzero" points="206.5433 93.6223 209.5383 97.8293 206.5413 109.6983 203.5243 105.5443"></polygon>
            <g id="Group-10" transform="translate(159.000000, 93.072000)" fill-rule="nonzero">
                <path d="M47.5433,0.5503 L44.5243,12.4723 C43.2103,12.8273 41.9053,13.2403 40.6143,13.7103 C39.3243,14.1803 38.0473,14.7073 36.7883,15.2893 C35.5293,15.8723 34.2873,16.5103 33.0653,17.2043 C31.8443,17.8973 30.6433,18.6453 29.4663,19.4483 C27.3993,20.8583 25.4583,22.4013 23.6533,24.0603 C21.8483,25.7203 20.1803,27.4973 18.6593,29.3743 C17.1393,31.2523 15.7663,33.2313 14.5513,35.2953 C13.3373,37.3603 12.2823,39.5093 11.3973,41.7293 L0.0703,40.1533 C1.9743,35.0083 4.5773,30.2003 7.7383,25.8253 C10.8973,21.4533 14.6143,17.5083 18.7523,14.0863 C22.8893,10.6643 27.4483,7.7623 32.2903,5.4753 C37.1343,3.1873 42.2653,1.5133 47.5433,0.5503" id="Fill-4" fill="#FFFFFF"></path>
                <polygon id="Fill-6" fill="#EFEFEF" points="11.3973 41.7295 14.5863 45.7365 3.3123 44.1595 0.0703 40.1535"></polygon>
                <path d="M44.5248,12.4722 L47.5408,16.6262 C46.2328,16.9792 44.9348,17.3892 43.6498,17.8562 C42.3658,18.3242 41.0958,18.8472 39.8428,19.4262 C38.5898,20.0062 37.3538,20.6402 36.1388,21.3302 C34.9228,22.0192 33.7288,22.7642 32.5578,23.5622 C30.5008,24.9652 28.5698,26.5002 26.7748,28.1512 C24.9788,29.8032 23.3198,31.5712 21.8078,33.4392 C20.2948,35.3072 18.9298,37.2772 17.7228,39.3312 C16.5148,41.3862 15.4658,43.5272 14.5868,45.7362 L11.3978,41.7292 C12.2818,39.5102 13.3378,37.3602 14.5518,35.2952 C15.7658,33.2312 17.1388,31.2522 18.6598,29.3742 C20.1798,27.4972 21.8488,25.7202 23.6528,24.0602 C25.4578,22.4012 27.3998,20.8582 29.4668,19.4482 C30.6438,18.6452 31.8438,17.8972 33.0658,17.2042 C34.2868,16.5112 35.5288,15.8722 36.7888,15.2892 C38.0478,14.7072 39.3238,14.1802 40.6148,13.7102 C41.9048,13.2412 43.2098,12.8272 44.5248,12.4722" id="Fill-8" fill="#474747"></path>
            </g>
            <g id="Group-13" transform="translate(170.000000, 105.072000)">
                <g id="Fill-11-Clipped">
                    <mask id="mask-2" fill="white">
                        <use xlink:href="#path-1"></use>
                    </mask>
                    <g id="path-1"></g>
                    <path d="M33.5248,0.4722 L36.5408,4.6262 C35.2328,4.9792 33.9348,5.3892 32.6498,5.8562 C31.3658,6.3242 30.0958,6.8472 28.8428,7.4262 C27.5898,8.0062 26.3538,8.6402 25.1388,9.3302 C23.9228,10.0192 22.7288,10.7642 21.5578,11.5622 C19.5008,12.9652 17.5698,14.5002 15.7748,16.1512 C13.9788,17.8032 12.3198,19.5712 10.8078,21.4392 C9.2948,23.3072 7.9298,25.2772 6.7228,27.3312 C5.5148,29.3862 4.4658,31.5272 3.5868,33.7362 L0.3978,29.7292 C1.2818,27.5102 2.3378,25.3602 3.5518,23.2952 C4.7658,21.2312 6.1388,19.2522 7.6598,17.3742 C9.1798,15.4972 10.8488,13.7202 12.6528,12.0602 C14.4578,10.4012 16.3998,8.8582 18.4668,7.4482 C19.6438,6.6452 20.8438,5.8972 22.0658,5.2042 C23.2868,4.5112 24.5288,3.8722 25.7888,3.2892 C27.0478,2.7072 28.3238,2.1802 29.6148,1.7102 C30.9048,1.2412 32.2098,0.8272 33.5248,0.4722" id="Fill-11" fill="#474747" fill-rule="nonzero" mask="url(#mask-2)"></path>
                </g>
            </g>
            <polygon id="Fill-14" fill="#0E1627" fill-rule="nonzero" points="238.9881 57.5715 241.8101 61.9535 232.7441 98.3965 229.8581 94.1765"></polygon>
            <g id="Group-18" transform="translate(215.000000, 103.072000)">
                <g id="Fill-16-Clipped">
                    <mask id="mask-4" fill="white">
                        <use xlink:href="#path-3"></use>
                    </mask>
                    <g id="path-3"></g>
                    <path d="M33.6078,17.5547 L36.4198,21.6707 C34.8848,19.4177 33.1318,17.3677 31.1888,15.5367 C29.2478,13.7087 27.1178,12.0977 24.8248,10.7217 C22.5348,9.3467 20.0838,8.2057 17.4978,7.3147 C14.9148,6.4247 12.1978,5.7837 9.3738,5.4077 C8.8958,5.3437 8.4178,5.2877 7.9388,5.2407 C7.4588,5.1937 6.9798,5.1537 6.4998,5.1217 C6.0198,5.0907 5.5398,5.0667 5.0598,5.0507 C4.5788,5.0347 4.0988,5.0267 3.6188,5.0257 L0.6608,0.8567 C1.1428,0.8577 1.6258,0.8657 2.1078,0.8817 C2.5898,0.8977 3.0728,0.9207 3.5548,0.9527 C4.0368,0.9837 4.5188,1.0237 5.0008,1.0707 C5.4818,1.1177 5.9628,1.1737 6.4428,1.2367 C9.2798,1.6137 12.0088,2.2557 14.6038,3.1477 C17.2018,4.0417 19.6638,5.1857 21.9638,6.5647 C24.2668,7.9457 26.4068,9.5617 28.3558,11.3977 C30.3068,13.2357 32.0668,15.2937 33.6078,17.5547" id="Fill-16" fill="#0E1627" fill-rule="nonzero" mask="url(#mask-4)"></path>
                </g>
            </g>
            <g id="Group-23" transform="translate(167.000000, 83.072000)" fill-rule="nonzero">
                <path d="M10.7523,94.5586 C10.5333,94.2616 10.3183,93.9616 10.1083,93.6566 C9.8973,93.3526 9.6913,93.0446 9.4883,92.7326 C8.2573,90.8346 7.2103,88.8486 6.3513,86.7926 C5.4923,84.7386 4.8193,82.6146 4.3353,80.4386 C3.8523,78.2656 3.5573,76.0406 3.4533,73.7826 C3.3483,71.5266 3.4353,69.2376 3.7133,66.9326 L39.8273,72.0566 L36.7853,68.1016 L0.5033,62.9766 C0.2223,65.2916 0.1343,67.5916 0.2373,69.8566 C0.3403,72.1256 0.6353,74.3596 1.1203,76.5426 C1.6053,78.7266 2.2793,80.8596 3.1413,82.9226 C4.0033,84.9876 5.0533,86.9826 6.2893,88.8886 C6.4923,89.2006 6.7003,89.5106 6.9113,89.8156 C7.1233,90.1216 7.3383,90.4236 7.5583,90.7216 C7.7773,91.0186 8.0013,91.3136 8.2283,91.6036 C8.4563,91.8946 8.6883,92.1816 8.9233,92.4646 C9.9863,93.7406 11.0493,95.0176 12.1123,96.2946 C11.8773,96.0136 11.6473,95.7276 11.4203,95.4376 C11.1933,95.1486 10.9713,94.8556 10.7523,94.5586" id="Fill-19" fill="#0E1627"></path>
                <path d="M105.1673,23.9609 L107.8583,28.1509 C107.7673,28.0089 107.6753,27.8669 107.5833,27.7259 C107.4903,27.5839 107.3973,27.4429 107.3033,27.3019 C107.2093,27.1619 107.1153,27.0219 107.0203,26.8809 C106.9253,26.7409 106.8293,26.6019 106.7333,26.4619 C105.5313,24.7219 104.2453,23.0569 102.8793,21.4699 C101.5153,19.8849 100.0703,18.3779 98.5483,16.9509 C97.0273,15.5249 95.4293,14.1789 93.7573,12.9159 C92.0863,11.6529 90.3403,10.4739 88.5233,9.3779 C87.8413,8.9669 87.1513,8.5689 86.4533,8.1849 C85.7563,7.8009 85.0513,7.4309 84.3393,7.0749 C83.6283,6.7189 82.9093,6.3759 82.1843,6.0469 C81.4583,5.7179 80.7263,5.4029 79.9863,5.1009 L77.1743,0.8289 C77.9173,1.1309 78.6523,1.4469 79.3813,1.7769 C80.1103,2.1069 80.8323,2.4509 81.5473,2.8079 C82.2623,3.1659 82.9703,3.5369 83.6703,3.9209 C84.3713,4.3069 85.0643,4.7059 85.7503,5.1189 C87.5753,6.2169 89.3283,7.4009 91.0063,8.6679 C92.6863,9.9359 94.2913,11.2859 95.8173,12.7169 C97.3463,14.1499 98.7973,15.6629 100.1673,17.2539 C101.5393,18.8469 102.8303,20.5189 104.0373,22.2659 C104.1343,22.4059 104.2303,22.5459 104.3253,22.6869 C104.4213,22.8269 104.5163,22.9679 104.6103,23.1089 C104.7043,23.2509 104.7973,23.3919 104.8903,23.5339 C104.9833,23.6759 105.0763,23.8179 105.1673,23.9609" id="Fill-21" fill="#474747"></path>
            </g>
            <g id="Group-26" transform="translate(244.000000, 83.072000)">
                <g id="Fill-24-Clipped">
                    <mask id="mask-6" fill="white">
                        <use xlink:href="#path-5"></use>
                    </mask>
                    <g id="path-5"></g>
                    <path d="M28.1673,23.9609 L30.8583,28.1509 C30.7673,28.0089 30.6753,27.8669 30.5833,27.7259 C30.4903,27.5839 30.3973,27.4429 30.3033,27.3019 C30.2093,27.1619 30.1153,27.0219 30.0203,26.8809 C29.9253,26.7409 29.8293,26.6019 29.7333,26.4619 C28.5313,24.7219 27.2453,23.0569 25.8793,21.4699 C24.5153,19.8849 23.0703,18.3779 21.5483,16.9509 C20.0273,15.5249 18.4293,14.1789 16.7573,12.9159 C15.0863,11.6529 13.3403,10.4739 11.5233,9.3779 C10.8413,8.9669 10.1513,8.5689 9.4533,8.1849 C8.7563,7.8009 8.0513,7.4309 7.3393,7.0749 C6.6283,6.7189 5.9093,6.3759 5.1843,6.0469 C4.4583,5.7179 3.7263,5.4029 2.9863,5.1009 L0.1743,0.8289 C0.9173,1.1309 1.6523,1.4469 2.3813,1.7769 C3.1103,2.1069 3.8323,2.4509 4.5473,2.8079 C5.2623,3.1659 5.9703,3.5369 6.6703,3.9209 C7.3713,4.3069 8.0643,4.7059 8.7503,5.1189 C10.5753,6.2169 12.3283,7.4009 14.0063,8.6679 C15.6863,9.9359 17.2913,11.2859 18.8173,12.7169 C20.3463,14.1499 21.7973,15.6629 23.1673,17.2539 C24.5393,18.8469 25.8303,20.5189 27.0373,22.2659 C27.1343,22.4059 27.2303,22.5459 27.3253,22.6869 C27.4213,22.8269 27.5163,22.9679 27.6103,23.1089 C27.7043,23.2509 27.7973,23.3919 27.8903,23.5339 C27.9833,23.6759 28.0763,23.8179 28.1673,23.9609" id="Fill-24" fill="#474747" fill-rule="nonzero" mask="url(#mask-6)"></path>
                </g>
            </g>
            <path d="M159.6981,198.218 L156.4051,194.483 C155.9041,193.915 155.4141,193.337 154.9351,192.749 C154.4561,192.162 153.9881,191.565 153.5301,190.958 C153.0731,190.351 152.6271,189.735 152.1921,189.109 C151.7571,188.484 151.3341,187.848 150.9211,187.203 C149.7791,185.416 148.7371,183.579 147.7971,181.697 C146.8581,179.816 146.0201,177.889 145.2851,175.92 C144.5521,173.952 143.9201,171.942 143.3921,169.893 C142.8641,167.845 142.4401,165.76 142.1201,163.637 C141.7901,161.445 141.5751,159.237 141.4761,157.017 C141.3771,154.8 141.3931,152.572 141.5251,150.336 C141.6561,148.102 141.9011,145.861 142.2611,143.615 C142.6201,141.372 143.0941,139.125 143.6821,136.878 C144.2691,134.632 144.9621,132.42 145.7571,130.245 C146.5511,128.072 147.4481,125.937 148.4471,123.842 C149.4451,121.748 150.5441,119.695 151.7431,117.686 C152.9411,115.677 154.2381,113.713 155.6331,111.796 C156.9801,109.944 158.4051,108.154 159.9041,106.43 C161.4021,104.706 162.9751,103.047 164.6191,101.456 C166.2621,99.864 167.9781,98.341 169.7621,96.888 C171.5461,95.435 173.3991,94.052 175.3181,92.742 C177.2371,91.431 179.1981,90.211 181.1981,89.081 C183.1981,87.951 185.2371,86.912 187.3111,85.965 C189.3851,85.018 191.4951,84.163 193.6361,83.403 C195.7791,82.643 197.9531,81.976 200.1561,81.405 C201.9601,80.938 203.7671,80.539 205.5771,80.209 C207.3881,79.879 209.2011,79.617 211.0151,79.425 C212.8301,79.232 214.6451,79.108 216.4591,79.053 C218.2741,78.998 220.0881,79.013 221.8991,79.097 L224.8131,83.376 C223.0111,83.291 221.2051,83.276 219.3991,83.329 C217.5941,83.383 215.7871,83.505 213.9811,83.696 C212.1761,83.886 210.3711,84.145 208.5691,84.473 C206.7681,84.801 204.9691,85.197 203.1741,85.661 C200.9821,86.228 198.8181,86.89 196.6861,87.646 C194.5541,88.402 192.4551,89.251 190.3911,90.193 C188.3271,91.134 186.2991,92.167 184.3081,93.291 C182.3191,94.415 180.3671,95.63 178.4581,96.933 C176.5491,98.236 174.7051,99.612 172.9301,101.058 C171.1561,102.504 169.4491,104.019 167.8141,105.603 C166.1781,107.186 164.6141,108.837 163.1241,110.552 C161.6331,112.269 160.2161,114.05 158.8761,115.893 C157.4891,117.801 156.1991,119.756 155.0081,121.755 C153.8161,123.755 152.7241,125.799 151.7321,127.883 C150.7391,129.968 149.8471,132.094 149.0581,134.257 C148.2681,136.422 147.5801,138.623 146.9971,140.86 C146.4131,143.096 145.9441,145.334 145.5871,147.567 C145.2301,149.802 144.9871,152.033 144.8581,154.258 C144.7291,156.484 144.7151,158.702 144.8151,160.909 C144.9151,163.119 145.1301,165.318 145.4601,167.501 C145.7801,169.614 146.2031,171.692 146.7301,173.73 C147.2571,175.77 147.8871,177.772 148.6191,179.731 C149.3511,181.692 150.1861,183.611 151.1221,185.484 C152.0591,187.359 153.0971,189.188 154.2361,190.968 C154.6461,191.61 155.0681,192.243 155.5011,192.866 C155.9351,193.489 156.3791,194.103 156.8351,194.707 C157.2901,195.312 157.7571,195.906 158.2341,196.491 C158.7111,197.076 159.1991,197.652 159.6981,198.218" id="Fill-27" fill="#474747" fill-rule="nonzero"></path>
            <g id="Group-31" transform="translate(141.000000, 78.072000)">
                <g id="Fill-29-Clipped">
                    <mask id="mask-8" fill="white">
                        <use xlink:href="#path-7"></use>
                    </mask>
                    <g id="path-7"></g>
                    <path d="M80.8988,1.0249 L83.8128,5.3039 C82.0108,5.2189 80.2058,5.2039 78.3988,5.2569 C76.5938,5.3109 74.7868,5.4329 72.9808,5.6239 C71.1758,5.8139 69.3708,6.0729 67.5688,6.4009 C65.7678,6.7289 63.9688,7.1249 62.1738,7.5889 C59.9818,8.1559 57.8178,8.8179 55.6858,9.5739 C53.5548,10.3299 51.4548,11.1789 49.3908,12.1209 C47.3268,13.0619 45.2988,14.0949 43.3088,15.2189 C41.3188,16.3429 39.3678,17.5579 37.4578,18.8609 C35.5488,20.1639 33.7058,21.5399 31.9308,22.9859 C30.1558,24.4319 28.4488,25.9469 26.8138,27.5309 C25.1788,29.1139 23.6138,30.7649 22.1238,32.4809 C20.6328,34.1969 19.2158,35.9779 17.8768,37.8209 C16.4888,39.7289 15.1988,41.6839 14.0078,43.6829 C12.8158,45.6829 11.7238,47.7269 10.7318,49.8109 C9.7388,51.8959 8.8468,54.0219 8.0578,56.1849 C7.2678,58.3499 6.5808,60.5509 5.9968,62.7879 C5.4138,65.0249 4.9438,67.2619 4.5868,69.4949 C4.2308,71.7299 3.9868,73.9619 3.8578,76.1859 C3.7298,78.4119 3.7148,80.6299 3.8148,82.8379 C3.9148,85.0469 4.1298,87.2459 4.4608,89.4289 C4.7798,91.5419 5.2038,93.6199 5.7298,95.6579 C6.2568,97.6979 6.8868,99.6999 7.6188,101.6589 C8.3518,103.6199 9.1868,105.5389 10.1228,107.4119 C11.0598,109.2869 12.0978,111.1159 13.2358,112.8959 C13.6468,113.5379 14.0678,114.1709 14.5018,114.7939 C14.9348,115.4179 15.3788,116.0309 15.8348,116.6349 C16.2898,117.2399 16.7568,117.8349 17.2338,118.4199 C17.7108,119.0039 18.1998,119.5799 18.6978,120.1459 L15.4048,116.4109 C14.9038,115.8429 14.4138,115.2649 13.9348,114.6769 C13.4558,114.0899 12.9878,113.4929 12.5298,112.8859 C12.0728,112.2789 11.6268,111.6629 11.1918,111.0369 C10.7568,110.4119 10.3338,109.7759 9.9208,109.1309 C8.7788,107.3439 7.7368,105.5069 6.7968,103.6249 C5.8578,101.7439 5.0208,99.8169 4.2858,97.8479 C3.5518,95.8799 2.9198,93.8699 2.3918,91.8209 C1.8638,89.7739 1.4398,87.6879 1.1208,85.5659 C0.7898,83.3729 0.5758,81.1649 0.4768,78.9449 C0.3778,76.7279 0.3938,74.4999 0.5248,72.2639 C0.6558,70.0299 0.9008,67.7889 1.2608,65.5439 C1.6208,63.2999 2.0948,61.0529 2.6818,58.8059 C3.2698,56.5599 3.9618,54.3479 4.7568,52.1729 C5.5508,50.0009 6.4488,47.8649 7.4468,45.7699 C8.4448,43.6759 9.5448,41.6229 10.7428,39.6139 C11.9408,37.6059 13.2378,35.6409 14.6328,33.7239 C15.9808,31.8719 17.4048,30.0819 18.9038,28.3579 C20.4018,26.6339 21.9748,24.9749 23.6188,23.3839 C25.2628,21.7929 26.9778,20.2689 28.7618,18.8159 C30.5458,17.3629 32.3988,15.9799 34.3178,14.6699 C36.2368,13.3589 38.1978,12.1389 40.1978,11.0089 C42.1978,9.8789 44.2368,8.8399 46.3108,7.8929 C48.3848,6.9459 50.4948,6.0909 52.6368,5.3309 C54.7788,4.5709 56.9538,3.9039 59.1568,3.3339 C60.9598,2.8659 62.7678,2.4669 64.5778,2.1369 C66.3878,1.8069 68.2018,1.5459 70.0148,1.3529 C71.8298,1.1599 73.6448,1.0359 75.4588,0.9819 C77.2738,0.9259 79.0878,0.9409 80.8988,1.0249" id="Fill-29" fill="#474747" fill-rule="nonzero" mask="url(#mask-8)"></path>
                </g>
            </g>
            <g id="Group-34" transform="translate(166.000000, 183.072000)">
                <g id="Fill-32-Clipped">
                    <mask id="mask-10" fill="white">
                        <use xlink:href="#path-9"></use>
                    </mask>
                    <g id="path-9"></g>
                    <path d="M4.8631,4.8667 L8.0841,8.6387 C7.7391,8.3227 7.4011,8.0007 7.0671,7.6737 C6.7341,7.3477 6.4051,7.0167 6.0821,6.6807 C5.7591,6.3457 5.4411,6.0057 5.1291,5.6607 C4.8171,5.3167 4.5091,4.9687 4.2081,4.6157 L0.9711,0.8267 C1.2741,1.1807 1.5821,1.5317 1.8961,1.8767 C2.2101,2.2227 2.5291,2.5637 2.8531,2.9007 C3.1771,3.2377 3.5081,3.5697 3.8421,3.8977 C4.1771,4.2247 4.5181,4.5487 4.8631,4.8667" id="Fill-32" fill="#0E1627" fill-rule="nonzero" mask="url(#mask-10)"></path>
                </g>
            </g>
            <g id="Group-37" transform="translate(238.000000, 57.072000)">
                <g id="Fill-35-Clipped">
                    <mask id="mask-12" fill="white">
                        <use xlink:href="#path-11"></use>
                    </mask>
                    <g id="path-11"></g>
                    <path d="M56.9227,38.4795 L59.4987,42.7335 C59.2687,42.3535 59.0347,41.9755 58.7977,41.5985 C58.5617,41.2215 58.3217,40.8475 58.0787,40.4745 C57.8357,40.1015 57.5887,39.7295 57.3397,39.3605 C57.0897,38.9905 56.8367,38.6235 56.5807,38.2575 C54.9447,35.9205 53.1977,33.6875 51.3427,31.5595 C49.4897,29.4345 47.5297,27.4145 45.4667,25.5035 C43.4057,23.5955 41.2427,21.7955 38.9787,20.1065 C36.7187,18.4195 34.3597,16.8445 31.9037,15.3825 C29.7587,14.1055 27.5607,12.9285 25.3107,11.8515 C23.0637,10.7755 20.7657,9.7995 18.4197,8.9225 C16.0747,8.0475 13.6837,7.2725 11.2467,6.5995 C8.8117,5.9255 6.3317,5.3535 3.8097,4.8815 L0.9877,0.4995 C3.5217,0.9715 6.0127,1.5445 8.4587,2.2195 C10.9067,2.8945 13.3097,3.6715 15.6637,4.5485 C18.0207,5.4265 20.3297,6.4055 22.5877,7.4855 C24.8467,8.5655 27.0557,9.7465 29.2097,11.0265 C31.6757,12.4935 34.0457,14.0745 36.3157,15.7665 C38.5897,17.4615 40.7627,19.2685 42.8317,21.1835 C44.9037,23.1015 46.8727,25.1275 48.7327,27.2615 C50.5957,29.3965 52.3507,31.6395 53.9927,33.9855 C54.2507,34.3525 54.5047,34.7215 54.7547,35.0925 C55.0057,35.4635 55.2527,35.8355 55.4967,36.2105 C55.7407,36.5845 55.9817,36.9615 56.2197,37.3395 C56.4577,37.7175 56.6917,38.0975 56.9227,38.4795" id="Fill-35" fill="#0E1627" fill-rule="nonzero" mask="url(#mask-12)"></path>
                </g>
            </g>
            <g id="Group-40" transform="translate(117.000000, 56.072000)">
                <g id="Fill-38-Clipped">
                    <mask id="mask-14" fill="white">
                        <use xlink:href="#path-13"></use>
                    </mask>
                    <g id="path-13"></g>
                    <path d="M99.0467,0.0615 L101.9747,4.4355 C100.3477,4.5275 98.7207,4.6615 97.0937,4.8365 C95.4677,5.0115 93.8427,5.2275 92.2187,5.4845 C90.5947,5.7415 88.9717,6.0405 87.3517,6.3795 C85.7317,6.7185 84.1127,7.0985 82.4967,7.5195 C79.5577,8.2875 76.6557,9.1825 73.7977,10.2015 C70.9417,11.2195 68.1277,12.3625 65.3607,13.6285 C62.5957,14.8945 59.8767,16.2825 57.2097,17.7915 C54.5437,19.3005 51.9277,20.9295 49.3677,22.6775 C46.8087,24.4255 44.3377,26.2705 41.9577,28.2085 C39.5777,30.1465 37.2887,32.1775 35.0947,34.2985 C32.9007,36.4205 30.8017,38.6325 28.7997,40.9305 C26.7977,43.2295 24.8947,45.6165 23.0917,48.0855 C21.2267,50.6435 19.4917,53.2635 17.8877,55.9425 C16.2827,58.6225 14.8107,61.3615 13.4717,64.1555 C12.1317,66.9505 10.9267,69.8005 9.8577,72.7015 C8.7877,75.6035 7.8547,78.5575 7.0617,81.5565 C6.2667,84.5585 5.6237,87.5615 5.1327,90.5605 C4.6417,93.5615 4.3017,96.5605 4.1157,99.5495 C3.9287,102.5415 3.8957,105.5255 4.0147,108.4955 C4.1347,111.4685 4.4087,114.4285 4.8377,117.3695 C5.2537,120.2155 5.8087,123.0145 6.5017,125.7625 C7.1957,128.5145 8.0287,131.2145 8.9987,133.8585 C9.9707,136.5065 11.0797,139.0975 12.3247,141.6285 C13.5717,144.1625 14.9557,146.6355 16.4747,149.0435 C17.1397,150.0965 17.8267,151.1315 18.5347,152.1485 C19.2447,153.1655 19.9757,154.1635 20.7287,155.1435 C21.4817,156.1225 22.2567,157.0835 23.0527,158.0245 C23.8497,158.9665 24.6687,159.8895 25.5077,160.7925 L22.1207,157.1505 C21.2777,156.2445 20.4567,155.3175 19.6567,154.3725 C18.8567,153.4265 18.0787,152.4615 17.3227,151.4785 C16.5677,150.4955 15.8327,149.4925 15.1217,148.4715 C14.4097,147.4505 13.7207,146.4115 13.0537,145.3535 C11.5287,142.9365 10.1397,140.4525 8.8887,137.9075 C7.6397,135.3665 6.5267,132.7645 5.5527,130.1045 C4.5797,127.4495 3.7457,124.7385 3.0497,121.9745 C2.3547,119.2145 1.7987,116.4035 1.3837,113.5455 C0.9547,110.5915 0.6817,107.6195 0.5637,104.6325 C0.4447,101.6495 0.4807,98.6535 0.6707,95.6475 C0.8597,92.6455 1.2027,89.6345 1.6987,86.6185 C2.1937,83.6065 2.8417,80.5905 3.6417,77.5755 C4.4417,74.5615 5.3807,71.5955 6.4577,68.6795 C7.5327,65.7655 8.7457,62.9025 10.0937,60.0945 C11.4407,57.2885 12.9217,54.5365 14.5357,51.8435 C16.1487,49.1525 17.8937,46.5195 19.7697,43.9495 C21.5817,41.4685 23.4957,39.0705 25.5087,36.7605 C27.5207,34.4515 29.6317,32.2285 31.8377,30.0965 C34.0427,27.9645 36.3427,25.9235 38.7347,23.9755 C41.1277,22.0285 43.6107,20.1735 46.1837,18.4165 C48.7557,16.6595 51.3847,15.0215 54.0647,13.5045 C56.7447,11.9875 59.4777,10.5915 62.2557,9.3195 C65.0367,8.0455 67.8637,6.8955 70.7347,5.8715 C73.6067,4.8455 76.5217,3.9455 79.4757,3.1725 C81.0997,2.7495 82.7257,2.3655 84.3537,2.0235 C85.9817,1.6825 87.6117,1.3815 89.2437,1.1225 C90.8757,0.8625 92.5087,0.6445 94.1427,0.4685 C95.7767,0.2905 97.4117,0.1555 99.0467,0.0615" id="Fill-38" fill="#0E1627" fill-rule="nonzero" mask="url(#mask-14)"></path>
                </g>
            </g>
            <path d="M224.6883,67.9963 L221.8983,79.0973 C220.0873,79.0133 218.2733,78.9983 216.4593,79.0533 C214.6453,79.1083 212.8303,79.2313 211.0153,79.4243 C209.2013,79.6173 207.3883,79.8783 205.5773,80.2093 C203.7673,80.5393 201.9593,80.9383 200.1563,81.4053 C197.9533,81.9763 195.7793,82.6423 193.6363,83.4033 C191.4953,84.1633 189.3853,85.0173 187.3113,85.9653 C185.2363,86.9123 183.1983,87.9513 181.1983,89.0803 C179.1983,90.2103 177.2373,91.4313 175.3183,92.7423 C173.3983,94.0523 171.5463,95.4343 169.7623,96.8883 C167.9783,98.3413 166.2623,99.8643 164.6193,101.4553 C162.9753,103.0463 161.4023,104.7053 159.9033,106.4303 C158.4053,108.1543 156.9803,109.9433 155.6323,111.7953 C154.2383,113.7133 152.9403,115.6773 151.7433,117.6853 C150.5443,119.6953 149.4453,121.7483 148.4473,123.8423 C147.4483,125.9363 146.5513,128.0723 145.7563,130.2453 C144.9613,132.4193 144.2693,134.6313 143.6823,136.8773 C143.0943,139.1243 142.6203,141.3723 142.2613,143.6153 C141.9013,145.8603 141.6553,148.1013 141.5243,150.3353 C141.3933,152.5713 141.3773,154.8003 141.4763,157.0173 C141.5753,159.2363 141.7903,161.4443 142.1203,163.6373 C142.4393,165.7593 142.8643,167.8453 143.3923,169.8923 C143.9193,171.9423 144.5513,173.9523 145.2853,175.9193 C146.0203,177.8893 146.8583,179.8153 147.7973,181.6963 C148.7373,183.5793 149.7793,185.4163 150.9213,187.2033 C151.3843,187.9273 151.8613,188.6403 152.3533,189.3403 C152.8453,190.0403 153.3513,190.7283 153.8703,191.4053 C154.3903,192.0813 154.9233,192.7453 155.4713,193.3973 C156.0183,194.0493 156.5793,194.6883 157.1533,195.3163 L153.6393,208.9953 C148.6713,204.6443 144.3903,199.6413 140.8833,194.1343 C137.3883,188.6453 134.6623,182.6563 132.7943,176.3133 C130.9323,169.9883 129.9223,163.3103 129.8513,156.4213 C129.7803,149.5513 130.6433,142.4693 132.5283,135.3133 C135.2203,125.0933 139.7553,115.6353 145.6783,107.2383 C151.5913,98.8533 158.8963,91.5123 167.1463,85.5143 C175.3963,79.5163 184.6043,74.8523 194.3253,71.8303 C204.0633,68.8033 214.3323,67.4193 224.6883,67.9963" id="Fill-41" fill="#FFFFFF" fill-rule="nonzero"></path>
            <g id="Group-45" transform="translate(147.000000, 203.072000)">
                <g id="Fill-43-Clipped">
                    <mask id="mask-16" fill="white">
                        <use xlink:href="#path-15"></use>
                    </mask>
                    <g id="path-15"></g>
                    <path d="M6.639,5.9229 L9.954,9.5919 C9.451,9.1509 8.954,8.7019 8.465,8.2479 C7.975,7.7929 7.493,7.3319 7.018,6.8649 C6.543,6.3969 6.076,5.9229 5.616,5.4439 C5.156,4.9639 4.703,4.4779 4.258,3.9859 L0.919,0.2949 C1.366,0.7889 1.82,1.2769 2.282,1.7579 C2.744,2.2399 3.214,2.7159 3.69,3.1849 C4.167,3.6539 4.652,4.1169 5.143,4.5739 C5.635,5.0299 6.133,5.4799 6.639,5.9229" id="Fill-43" fill="#8C8C8C" fill-rule="nonzero" mask="url(#mask-16)"></path>
                </g>
            </g>
            <g id="Group-54" transform="translate(153.000000, 141.072000)" fill-rule="nonzero">
                <polygon id="Fill-46" fill="#474747" points="4.1537 54.2441 7.4447 57.9761 3.9547 71.5921 0.6387 67.9231"></polygon>
                <polygon id="Fill-48" fill="#0E1627" points="31.015 41.6992 30.691 42.9802 22.796 74.1632 21.2 80.4652 24.426 84.0892 26.01 77.8162 33.848 46.7772 34.17 45.5022"></polygon>
                <path d="M18.4418,79.3013 C17.5348,78.8963 16.6408,78.4743 15.7578,78.0363 C14.8768,77.5983 14.0068,77.1443 13.1508,76.6743 C12.2948,76.2043 11.4508,75.7183 10.6198,75.2173 L13.8928,78.8593 C14.7198,79.3583 15.5608,79.8423 16.4128,80.3103 C17.2658,80.7793 18.1308,81.2313 19.0088,81.6673 C19.8868,82.1043 20.7768,82.5243 21.6798,82.9283 C22.5838,83.3313 23.4988,83.7183 24.4258,84.0893 L21.1998,80.4653 C20.2688,80.0943 19.3488,79.7063 18.4418,79.3013" id="Fill-50" fill="#0E1627"></path>
                <polygon id="Fill-52" fill="#0E1627" points="65.0721 0.3608 68.0411 4.3668 49.7951 77.7098 46.6951 74.0438"></polygon>
            </g>
            <g id="Group-57" transform="translate(215.000000, 114.072000)">
                <g id="Fill-55-Clipped">
                    <mask id="mask-18" fill="white">
                        <use xlink:href="#path-17"></use>
                    </mask>
                    <g id="path-17"></g>
                    <path d="M44.1019,0.2261 L46.8599,4.3761 C48.6639,7.0921 50.1899,10.0021 51.4079,13.0661 C52.6269,16.1361 53.5389,19.3601 54.1149,22.7011 C54.6919,26.0471 54.9329,29.5091 54.8089,33.0491 C54.6849,36.5941 54.1959,40.2161 53.3149,43.8751 C51.8819,49.8311 49.5189,55.4321 46.4109,60.5471 C43.2999,65.6681 39.4459,70.2981 35.0359,74.3081 C30.6239,78.3181 25.6609,81.7041 20.3329,84.3371 C15.0089,86.9701 9.3259,88.8481 3.4739,89.8461 L0.4579,86.1031 C6.3389,85.0981 12.0509,83.2081 17.4029,80.5611 C22.7569,77.9131 27.7469,74.5081 32.1819,70.4771 C36.6159,66.4471 40.4909,61.7941 43.6199,56.6481 C46.7459,51.5081 49.1229,45.8811 50.5669,39.8971 C51.4549,36.2211 51.9479,32.5821 52.0739,29.0221 C52.1999,25.4661 51.9599,21.9881 51.3819,18.6271 C50.8059,15.2721 49.8909,12.0341 48.6669,8.9521 C47.4449,5.8741 45.9139,2.9531 44.1019,0.2261" id="Fill-55" fill="#0E1627" fill-rule="nonzero" mask="url(#mask-18)"></path>
                </g>
            </g>
            <g id="Group-68" transform="translate(106.000000, 44.072000)" fill-rule="nonzero">
                <polygon id="Fill-58" fill="#192644" points="93.6947 171.0435 96.7947 174.7095 93.9077 186.3145 90.7867 182.7025"></polygon>
                <path d="M112.8656,0.9287 L110.0466,12.0617 C108.4116,12.1557 106.7766,12.2907 105.1426,12.4687 C103.5086,12.6447 101.8756,12.8627 100.2436,13.1227 C98.6126,13.3817 96.9816,13.6817 95.3536,14.0237 C93.7256,14.3657 92.0996,14.7487 90.4756,15.1727 C87.5216,15.9457 84.6066,16.8457 81.7346,17.8707 C78.8646,18.8957 76.0366,20.0457 73.2566,21.3197 C70.4776,22.5917 67.7446,23.9877 65.0646,25.5047 C62.3846,27.0217 59.7566,28.6597 57.1836,30.4167 C54.6116,32.1737 52.1276,34.0287 49.7356,35.9757 C47.3436,37.9237 45.0426,39.9647 42.8376,42.0967 C40.6316,44.2287 38.5206,46.4507 36.5086,48.7607 C34.4956,51.0707 32.5816,53.4687 30.7696,55.9497 C28.8936,58.5197 27.1486,61.1527 25.5356,63.8437 C23.9226,66.5357 22.4406,69.2877 21.0936,72.0947 C19.7456,74.9027 18.5326,77.7657 17.4576,80.6787 C16.3806,83.5957 15.4416,86.5617 14.6416,89.5747 C13.8416,92.5907 13.1936,95.6067 12.6986,98.6187 C12.2026,101.6347 11.8596,104.6457 11.6706,107.6477 C11.4806,110.6537 11.4446,113.6497 11.5636,116.6327 C11.6816,119.6187 11.9546,122.5917 12.3836,125.5457 C12.7996,128.4037 13.3546,131.2147 14.0496,133.9747 C14.7456,136.7387 15.5796,139.4497 16.5526,142.1047 C17.5266,144.7637 18.6396,147.3667 19.8886,149.9077 C21.1396,152.4527 22.5286,154.9357 24.0536,157.3537 C25.5806,159.7747 27.2236,162.0997 28.9816,164.3237 C30.7416,166.5507 32.6156,168.6777 34.6006,170.6987 C36.5876,172.7227 38.6866,174.6417 40.8926,176.4517 C43.1016,178.2647 45.4186,179.9687 47.8406,181.5587 C49.9616,182.9517 52.1446,184.2447 54.3866,185.4367 C56.6296,186.6297 58.9316,187.7207 61.2886,188.7097 C63.6496,189.6997 66.0646,190.5857 68.5326,191.3677 C71.0026,192.1497 73.5256,192.8277 76.0976,193.3997 L97.7846,107.1017 L61.5036,101.9767 C61.2216,104.2917 61.1346,106.5917 61.2376,108.8577 C61.3406,111.1247 61.6356,113.3597 62.1196,115.5427 C62.6046,117.7267 63.2796,119.8597 64.1406,121.9227 C65.0036,123.9877 66.0536,125.9827 67.2896,127.8877 C67.9956,128.9767 68.7526,130.0197 69.5576,131.0177 C70.3626,132.0157 71.2156,132.9677 72.1126,133.8707 C73.0106,134.7747 73.9526,135.6297 74.9376,136.4347 C75.9226,137.2407 76.9486,137.9957 78.0146,138.6997 L77.6906,139.9807 L69.7956,171.1637 L68.1996,177.4657 C67.2686,177.0947 66.3486,176.7057 65.4416,176.3007 C64.5346,175.8957 63.6406,175.4737 62.7586,175.0357 C61.8766,174.5987 61.0076,174.1447 60.1506,173.6747 C59.2946,173.2047 58.4506,172.7187 57.6196,172.2177 L60.8096,159.7107 L64.8636,143.8667 C61.6596,140.9157 58.9006,137.5527 56.6416,133.8697 C54.3876,130.1957 52.6326,126.2027 51.4316,121.9817 C50.2346,117.7697 49.5896,113.3297 49.5526,108.7527 C49.5166,104.1837 50.0876,99.4757 51.3206,94.7187 C51.4436,94.2447 51.5726,93.7737 51.7066,93.3047 C51.8416,92.8357 51.9816,92.3687 52.1276,91.9057 C52.2736,91.4417 52.4256,90.9797 52.5826,90.5217 C52.7406,90.0627 52.9026,89.6067 53.0706,89.1537 L64.3976,90.7297 L100.6316,95.7727 L112.0726,97.3607 L93.6946,171.0437 L90.7866,182.7027 L87.6656,195.2157 L84.8246,206.9557 C84.3306,206.9057 83.8376,206.8517 83.3436,206.7947 C82.8496,206.7377 82.3556,206.6767 81.8626,206.6137 C81.3686,206.5497 80.8756,206.4817 80.3816,206.4107 C79.8886,206.3397 79.3956,206.2647 78.9026,206.1867 C64.5206,203.8957 51.6366,198.7837 40.6586,191.5307 C29.7476,184.3207 20.7246,174.9977 13.9766,164.2237 C7.2696,153.5157 2.8076,141.3727 0.9616,128.4297 C-0.8734,115.5597 -0.1244,101.8877 3.5796,88.0237 C6.8896,75.6337 12.2856,64.1197 19.2776,53.7937 C26.2546,43.4897 34.8346,34.3477 44.5416,26.6887 C54.2466,19.0307 65.0956,12.8387 76.6176,8.4387 C88.1596,4.0327 100.3996,1.4157 112.8656,0.9287" id="Fill-60" fill="#192745"></path>
                <path d="M90.7865,182.7026 L87.6655,195.2156 L84.8255,206.9556 C84.3305,206.9056 83.8375,206.8516 83.3435,206.7946 C82.8495,206.7376 82.3555,206.6776 81.8625,206.6126 C81.3695,206.5496 80.8755,206.4816 80.3815,206.4106 C79.8885,206.3396 79.3955,206.2646 78.9025,206.1866 C73.4135,205.3116 68.1425,204.0266 63.1125,202.3686 C58.0925,200.7126 53.3115,198.6856 48.7945,196.3256 C44.2875,193.9706 40.0425,191.2826 36.0805,188.2996 C32.1285,185.3226 28.4585,182.0536 25.0945,178.5266 L28.5245,182.1216 C31.8765,185.6346 35.5305,188.8906 39.4665,191.8556 C43.4115,194.8276 47.6375,197.5056 52.1245,199.8526 C56.6225,202.2046 61.3805,204.2246 66.3785,205.8746 C71.3855,207.5286 76.6325,208.8106 82.0955,209.6836 C82.5855,209.7626 83.0765,209.8366 83.5675,209.9076 C84.0585,209.9786 84.5495,210.0466 85.0405,210.1096 C85.5325,210.1736 86.0235,210.2346 86.5155,210.2916 C87.0065,210.3486 87.4975,210.4016 87.9895,210.4526 L90.8095,198.7676 L93.9075,186.3136 L90.7865,182.7026 Z" id="Fill-62" fill="#0E1627"></path>
                <path d="M141.0043,28.396 C149.4393,31.428 156.9863,35.857 163.4293,41.389 C169.8993,46.944 175.2583,53.612 179.2833,61.09 C183.3263,68.599 186.0233,76.924 187.1493,85.755 C188.2793,94.619 187.8253,103.988 185.5603,113.542 C183.0513,124.127 178.5513,133.964 172.5333,142.716 C166.5043,151.481 158.9633,159.143 150.3923,165.365 C141.8203,171.588 132.2343,176.361 122.1193,179.359 C112.0223,182.353 101.4163,183.572 90.7863,182.703 L93.6943,171.043 C95.5433,171.17 97.3963,171.223 99.2543,171.204 C101.1123,171.185 102.9733,171.093 104.8363,170.928 C106.7003,170.763 108.5653,170.525 110.4293,170.214 C112.2943,169.903 114.1583,169.52 116.0183,169.063 C118.2933,168.504 120.5393,167.843 122.7533,167.082 C124.9683,166.32 127.1503,165.458 129.2963,164.497 C131.4423,163.535 133.5523,162.475 135.6213,161.317 C137.6913,160.16 139.7193,158.905 141.7033,157.554 C143.6883,156.205 145.6023,154.776 147.4433,153.274 C149.2843,151.771 151.0523,150.193 152.7423,148.544 C154.4333,146.895 156.0473,145.174 157.5813,143.384 C159.1143,141.596 160.5683,139.738 161.9393,137.815 C163.3563,135.827 164.6693,133.79 165.8763,131.708 C167.0823,129.626 168.1823,127.5 169.1743,125.334 C170.1653,123.168 171.0483,120.963 171.8223,118.721 C172.5953,116.48 173.2583,114.203 173.8103,111.895 C174.3613,109.587 174.7933,107.282 175.1053,104.985 C175.4173,102.69 175.6093,100.403 175.6823,98.127 C175.7543,95.853 175.7083,93.591 175.5433,91.344 C175.3773,89.1 175.0923,86.872 174.6893,84.663 C174.2993,82.531 173.8033,80.439 173.2033,78.391 C172.6033,76.345 171.8983,74.342 171.0913,72.387 C170.2853,70.434 169.3763,68.527 168.3653,66.672 C167.3573,64.818 166.2473,63.015 165.0373,61.266 C163.8303,59.519 162.5393,57.847 161.1683,56.254 C159.7973,54.663 158.3463,53.15 156.8173,51.717 C155.2913,50.286 153.6863,48.936 152.0063,47.668 C150.3283,46.401 148.5753,45.217 146.7503,44.119 C146.0643,43.706 145.3713,43.307 144.6703,42.921 C143.9703,42.537 143.2623,42.166 142.5473,41.808 C141.8323,41.451 141.1103,41.107 140.3813,40.777 C139.6523,40.447 138.9173,40.131 138.1743,39.829 L141.0043,28.396 Z" id="Fill-64" fill="#FFFFFF"></path>
                <path d="M177.0458,57.2344 L179.6818,61.4564 C182.1168,65.3574 184.1698,69.5124 185.8038,73.8744 C187.4418,78.2454 188.6588,82.8234 189.4198,87.5574 C190.1808,92.3014 190.4838,97.2014 190.2908,102.2084 C190.0978,107.2244 189.4078,112.3444 188.1838,117.5194 C185.6928,128.0544 181.2198,137.8444 175.2348,146.5534 C169.2408,155.2764 161.7408,162.8984 153.2138,169.0884 C144.6888,175.2764 135.1508,180.0234 125.0868,183.0024 C115.0408,185.9764 104.4858,187.1854 93.9078,186.3144 L90.7868,182.7024 C101.4158,183.5724 112.0228,182.3524 122.1188,179.3594 C132.2338,176.3614 141.8208,171.5884 150.3918,165.3654 C158.9638,159.1424 166.5048,151.4814 172.5328,142.7154 C178.5518,133.9634 183.0518,124.1274 185.5608,113.5424 C186.7928,108.3434 187.4888,103.1994 187.6858,98.1614 C187.8818,93.1324 187.5798,88.2104 186.8168,83.4444 C186.0558,78.6904 184.8348,74.0924 183.1918,69.7034 C181.5518,65.3234 179.4908,61.1514 177.0458,57.2344" id="Fill-66" fill="#474747"></path>
            </g>
            <g id="Group-71" transform="translate(196.000000, 101.072000)">
                <g id="Fill-69-Clipped">
                    <mask id="mask-20" fill="white">
                        <use xlink:href="#path-19"></use>
                    </mask>
                    <g id="path-19"></g>
                    <path d="M87.0458,0.2344 L89.6818,4.4564 C92.1168,8.3574 94.1698,12.5124 95.8038,16.8744 C97.4418,21.2454 98.6588,25.8234 99.4198,30.5574 C100.1808,35.3014 100.4838,40.2014 100.2908,45.2084 C100.0978,50.2244 99.4078,55.3444 98.1838,60.5194 C95.6928,71.0544 91.2198,80.8444 85.2348,89.5534 C79.2408,98.2764 71.7408,105.8984 63.2138,112.0884 C54.6888,118.2764 45.1508,123.0234 35.0868,126.0024 C25.0408,128.9764 14.4858,130.1854 3.9078,129.3144 L0.7868,125.7024 C11.4158,126.5724 22.0228,125.3524 32.1188,122.3594 C42.2338,119.3614 51.8208,114.5884 60.3918,108.3654 C68.9638,102.1424 76.5048,94.4814 82.5328,85.7154 C88.5518,76.9634 93.0518,67.1274 95.5608,56.5424 C96.7928,51.3434 97.4888,46.1994 97.6858,41.1614 C97.8818,36.1324 97.5798,31.2104 96.8168,26.4444 C96.0558,21.6904 94.8348,17.0924 93.1918,12.7034 C91.5518,8.3234 89.4908,4.1514 87.0458,0.2344" id="Fill-69" fill="#474747" fill-rule="nonzero" mask="url(#mask-20)"></path>
                </g>
            </g>
            <g id="Group-111" transform="translate(0.000000, 0.072000)">
                <g id="Group-74" transform="translate(202.000000, 90.000000)">
                    <g id="Fill-72-Clipped">
                        <mask id="mask-22" fill="white">
                            <use xlink:href="#path-21"></use>
                        </mask>
                        <g id="path-21"></g>
                        <path d="M118.2103,37.4492 C117.3243,31.5152 115.8863,25.7682 113.9403,20.2632 C112.0003,14.7742 109.5543,9.5282 106.6443,4.5802 C105.8053,3.1522 104.9653,1.7242 104.1253,0.2962 C107.0463,5.2642 109.5023,10.5322 111.4493,16.0442 C113.4023,21.5722 114.8433,27.3442 115.7313,33.3032 C116.6213,39.2792 116.9553,45.4412 116.6883,51.7322 C116.4213,58.0382 115.5513,64.4722 114.0363,70.9742 C111.0183,83.9282 105.7003,96.0322 98.5913,106.9172 C91.4663,117.8262 82.5573,127.4892 72.3833,135.5412 C62.2093,143.5952 50.7903,150.0232 38.6563,154.4702 C26.5443,158.9082 13.7433,161.3652 0.7823,161.4992 L3.8893,165.0002 C16.7873,164.8732 29.5243,162.4342 41.5753,158.0222 C53.6473,153.6022 65.0063,147.2102 75.1273,139.1992 C85.2453,131.1892 94.1063,121.5752 101.1903,110.7212 C108.2593,99.8892 113.5443,87.8432 116.5423,74.9502 C118.0453,68.4782 118.9083,62.0742 119.1713,55.7962 C119.4333,49.5332 119.0993,43.3982 118.2103,37.4492" id="Fill-72" fill="#0E1627" fill-rule="nonzero" mask="url(#mask-22)"></path>
                    </g>
                </g>
                <path d="M236.1161,45.6299 C250.2321,47.3509 263.0611,51.7839 274.1791,58.3539 C285.3651,64.9619 294.8261,73.7349 302.1191,84.0829 C309.4581,94.4959 314.5991,106.5029 317.0831,119.4889 C319.5811,132.5509 319.3871,146.5939 316.0361,160.9739 C313.0181,173.9279 307.7001,186.0319 300.5911,196.9179 C293.4671,207.8259 284.5571,217.4889 274.3841,225.5419 C264.2091,233.5949 252.7901,240.0229 240.6561,244.4699 C228.5441,248.9089 215.7431,251.3649 202.7831,251.4999 L205.7321,239.5819 C207.4131,239.5269 209.0971,239.4269 210.7821,239.2839 C212.4681,239.1399 214.1541,238.9529 215.8411,238.7209 C217.5281,238.4879 219.2161,238.2119 220.9021,237.8909 C222.5891,237.5699 224.2751,237.2049 225.9601,236.7959 C229.0431,236.0459 232.0891,235.1569 235.0921,234.1309 C238.0951,233.1039 241.0551,231.9399 243.9661,230.6409 C246.8771,229.3409 249.7391,227.9069 252.5461,226.3399 C255.3531,224.7729 258.1041,223.0729 260.7951,221.2439 C263.4851,219.4149 266.0791,217.4789 268.5741,215.4409 C271.0691,213.4019 273.4641,211.2619 275.7551,209.0249 C278.0451,206.7869 280.2301,204.4509 282.3061,202.0229 C284.3821,199.5949 286.3491,197.0739 288.2021,194.4639 C290.1201,191.7659 291.8941,189.0009 293.5231,186.1749 C295.1511,183.3519 296.6341,180.4669 297.9701,177.5289 C299.3041,174.5919 300.4911,171.6019 301.5281,168.5619 C302.5641,165.5249 303.4501,162.4399 304.1851,159.3129 C304.9201,156.1879 305.4911,153.0679 305.9001,149.9589 C306.3081,146.8529 306.5551,143.7579 306.6381,140.6799 C306.7221,137.6049 306.6441,134.5469 306.4051,131.5109 C306.1651,128.4789 305.7641,125.4689 305.2021,122.4869 C304.6601,119.6089 303.9741,116.7879 303.1471,114.0259 C302.3211,111.2689 301.3541,108.5709 300.2481,105.9379 C299.1451,103.3089 297.9031,100.7439 296.5251,98.2489 C295.1491,95.7569 293.6371,93.3349 291.9931,90.9849 C290.3501,88.6399 288.5961,86.3969 286.7331,84.2609 C284.8721,82.1279 282.9041,80.1009 280.8321,78.1829 C278.7621,76.2679 276.5891,74.4619 274.3161,72.7669 C272.0461,71.0739 269.6761,69.4929 267.2101,68.0269 C265.0551,66.7469 262.8471,65.5659 260.5871,64.4849 C258.3301,63.4059 256.0211,62.4269 253.6641,61.5489 C251.3091,60.6719 248.9071,59.8949 246.4581,59.2189 C244.0131,58.5449 241.5221,57.9709 238.9881,57.4999 L229.8581,94.1049 C236.4651,95.6879 242.4081,98.4579 247.5081,102.1569 C252.6231,105.8669 256.8901,110.5129 260.1231,115.8329 C263.3661,121.1689 265.5681,127.1819 266.5411,133.6079 C267.5161,140.0499 267.2551,146.9039 265.5671,153.8979 C264.1231,159.8809 261.7451,165.5079 258.6201,170.6489 C255.4911,175.7939 251.6161,180.4469 247.1821,184.4769 C242.7471,188.5079 237.7571,191.9129 232.4031,194.5609 C227.0511,197.2079 221.3391,199.0979 215.4581,200.1039 L218.5171,187.7439 C219.8541,187.3929 221.1811,186.9809 222.4941,186.5109 C223.8081,186.0409 225.1081,185.5109 226.3901,184.9239 C227.6731,184.3369 228.9391,183.6919 230.1831,182.9899 C231.4271,182.2879 232.6501,181.5279 233.8481,180.7129 C236.3891,178.9829 238.7411,177.0519 240.8851,174.9499 C243.0271,172.8489 244.9591,170.5769 246.6601,168.1649 C248.3611,165.7539 249.8301,163.2029 251.0481,160.5419 C252.2641,157.8819 253.2301,155.1129 253.9231,152.2639 C254.6151,149.4179 255.0151,146.5769 255.1281,143.7759 C255.2411,140.9769 255.0691,138.2179 254.6161,135.5299 C254.1641,132.8459 253.4331,130.2339 252.4281,127.7249 C251.4251,125.2199 250.1501,122.8189 248.6081,120.5549 C247.0671,118.2939 245.3071,116.2349 243.3561,114.3979 C241.4071,112.5619 239.2671,110.9459 236.9641,109.5649 C234.6641,108.1859 232.2011,107.0419 229.6041,106.1479 C227.0091,105.2549 224.2801,104.6129 221.4431,104.2369 C220.9631,104.1729 220.4821,104.1179 220.0001,104.0699 C219.5191,104.0239 219.0371,103.9839 218.5551,103.9529 C218.0731,103.9209 217.5901,103.8979 217.1081,103.8819 C216.6251,103.8659 216.1431,103.8579 215.6601,103.8569 L217.4341,96.7979 L221.8991,79.0249 L224.6881,67.9239 L228.6241,52.2629 L230.4401,45.0919 C230.9121,45.1249 231.3851,45.1599 231.8571,45.1979 C232.3301,45.2359 232.8031,45.2779 233.2761,45.3229 C233.7491,45.3669 234.2221,45.4149 234.6951,45.4659 C235.1691,45.5179 235.6421,45.5719 236.1161,45.6299" id="Fill-75" fill="#192745" fill-rule="nonzero"></path>
                <path d="M449.348805,138.075611 L449.348805,183.627555 C447.051394,185.021232 444.447858,186.237981 441.533782,187.282152 C438.619706,188.326322 435.593776,189.219668 432.460408,189.957839 C429.325568,190.696009 426.145104,191.241299 422.923431,191.589355 C419.698814,191.935962 416.675828,192.111441 413.850057,192.111441 C405.902576,192.111441 398.816072,190.806227 392.590545,188.195801 C386.365019,185.585374 381.110851,182.061299 376.828042,177.623573 C372.543761,173.185848 369.277935,168.030256 367.026148,162.156796 C364.774362,156.283336 363.648469,150.083573 363.648469,143.557507 C363.648469,136.684834 364.861196,130.289289 367.291064,124.370872 C369.719461,118.455355 373.073593,113.321517 377.357874,108.969355 C381.640683,104.620095 386.782997,101.203336 392.789232,98.7234313 C398.792524,96.2435261 405.372744,95.0035735 412.525477,95.0035735 C421.177929,95.0035735 428.242356,96.0709479 433.718759,98.201346 C439.19369,100.334645 443.785568,103.271374 447.494393,107.011536 L438.487248,116.539592 C434.600341,112.884995 430.494142,110.339829 426.168652,108.904095 C421.84169,107.46836 417.293965,106.750493 412.525477,106.750493 C407.137379,106.750493 402.280585,107.729403 397.955095,109.687223 C393.628133,111.645043 389.919309,114.278673 386.828622,117.583763 C383.736463,120.891754 381.352219,124.78419 379.675889,129.265422 C377.998087,133.748104 377.159187,138.512133 377.159187,143.557507 C377.159187,148.77836 378.086393,153.630853 379.940805,158.110635 C381.795217,162.593318 384.3546,166.487204 387.62337,169.792294 C390.889196,173.100284 394.730478,175.688957 399.147217,177.558313 C403.562484,179.430569 408.373654,180.364521 413.585141,180.364521 C418.088713,180.364521 422.347974,179.952654 426.367339,179.124569 C430.385232,178.299384 433.805593,177.101488 436.632835,175.535232 L436.632835,149.822531 L415.836927,149.822531 L415.836927,138.075611 L449.348805,138.075611 Z" id="Fill-77" fill="#FFFFFF" fill-rule="nonzero"></path>
                <path d="M481.721691,138.075611 L498.411401,138.075611 C500.882479,138.075611 503.332952,137.879829 505.762821,137.488265 C508.189746,137.096701 510.353227,136.378834 512.253264,135.334664 C514.151828,134.290493 515.673624,132.789498 516.823065,130.831678 C517.969563,128.873858 518.545019,126.328692 518.545019,123.19618 C518.545019,120.063668 517.969563,117.518502 516.823065,115.560682 C515.673624,113.602863 514.151828,112.101867 512.253264,111.057697 C510.353227,110.013526 508.189746,109.295659 505.762821,108.904095 C503.332952,108.512531 500.882479,108.316749 498.411401,108.316749 L481.721691,108.316749 L481.721691,138.075611 Z M469.005722,97.3529573 L501.987767,97.3529573 C507.992531,97.3529573 512.936158,98.1592891 516.823065,99.7676019 C520.707028,101.378815 523.777111,103.422199 526.028897,105.902104 C528.280683,108.382009 529.846631,111.167915 530.731157,114.255469 C531.612738,117.345924 532.055737,120.324711 532.055737,123.19618 C532.055737,126.156114 531.525905,129.004379 530.466241,131.745327 C529.406576,134.486275 527.883309,136.96618 525.896439,139.185043 C523.909569,141.403905 521.4797,143.276161 518.611248,144.79746 C515.739853,146.321659 512.538784,147.257062 509.008042,147.603668 L535.632103,189.762057 L519.737141,189.762057 L495.894699,149.039403 L481.721691,149.039403 L481.721691,189.762057 L469.005722,189.762057 L469.005722,97.3529573 Z" id="Fill-79" fill="#FFFFFF" fill-rule="nonzero"></path>
                <polygon id="Fill-81" fill="#FFFFFF" fill-rule="nonzero" points="547.538901 97.3528123 608.072214 97.3528123 608.072214 109.099732 560.254871 109.099732 560.254871 136.639732 604.760764 136.639732 604.760764 148.386651 560.254871 148.386651 560.254871 178.014992 610.456459 178.014992 610.456459 189.761912 547.538901 189.761912"></polygon>
                <path d="M702.752468,138.075611 L702.752468,183.627555 C700.455057,185.021232 697.851521,186.237981 694.937445,187.282152 C692.023369,188.326322 688.997439,189.219668 685.864071,189.957839 C682.729231,190.696009 679.548767,191.241299 676.327094,191.589355 C673.102477,191.935962 670.079491,192.111441 667.25372,192.111441 C659.306239,192.111441 652.219735,190.806227 645.994208,188.195801 C639.768682,185.585374 634.514514,182.061299 630.231704,177.623573 C625.947424,173.185848 622.681598,168.030256 620.429811,162.156796 C618.178025,156.283336 617.052132,150.083573 617.052132,143.557507 C617.052132,136.684834 618.264859,130.289289 620.694727,124.370872 C623.123124,118.455355 626.477256,113.321517 630.761536,108.969355 C635.044346,104.620095 640.18666,101.203336 646.192895,98.7234313 C652.196187,96.2435261 658.776407,95.0035735 665.92914,95.0035735 C674.581591,95.0035735 681.646019,96.0709479 687.122422,98.201346 C692.597353,100.334645 697.189231,103.271374 700.898056,107.011536 L691.890911,116.539592 C688.004004,112.884995 683.897805,110.339829 679.572315,108.904095 C675.245353,107.46836 670.697628,106.750493 665.92914,106.750493 C660.541042,106.750493 655.684248,107.729403 651.358758,109.687223 C647.031796,111.645043 643.322972,114.278673 640.232285,117.583763 C637.140126,120.891754 634.755882,124.78419 633.079552,129.265422 C631.40175,133.748104 630.562849,138.512133 630.562849,143.557507 C630.562849,148.77836 631.490056,153.630853 633.344468,158.110635 C635.19888,162.593318 637.758263,166.487204 641.027033,169.792294 C644.292859,173.100284 648.134141,175.688957 652.55088,177.558313 C656.966147,179.430569 661.777317,180.364521 666.988804,180.364521 C671.492376,180.364521 675.751637,179.952654 679.771002,179.124569 C683.788895,178.299384 687.209256,177.101488 690.036498,175.535232 L690.036498,149.822531 L669.24059,149.822531 L669.24059,138.075611 L702.752468,138.075611 Z" id="Fill-83" fill="#FFFFFF" fill-rule="nonzero"></path>
                <path d="M764.834951,180.364666 C770.220105,180.364666 775.076899,179.385756 779.405333,177.427936 C783.730823,175.470117 787.439647,172.839387 790.531806,169.531396 C793.622493,166.224856 796.006737,162.33242 797.684539,157.849737 C799.360868,153.368505 800.201241,148.605927 800.201241,143.557652 C800.201241,138.512278 799.360868,133.748249 797.684539,129.265567 C796.006737,124.784335 793.622493,120.891899 790.531806,117.583908 C787.439647,114.278818 783.730823,111.645188 779.405333,109.687368 C775.076899,107.729548 770.220105,106.750638 764.834951,106.750638 C759.446853,106.750638 754.590059,107.729548 750.264569,109.687368 C745.937607,111.645188 742.228783,114.278818 739.138096,117.583908 C736.045937,120.891899 733.661693,124.784335 731.985363,129.265567 C730.307562,133.748249 729.468661,138.512278 729.468661,143.557652 C729.468661,148.605927 730.307562,153.368505 731.985363,157.849737 C733.661693,162.33242 736.045937,166.224856 739.138096,169.531396 C742.228783,172.839387 745.937607,175.470117 750.264569,177.427936 C754.590059,179.385756 759.446853,180.364666 764.834951,180.364666 M764.834951,192.111586 C757.682218,192.111586 751.101998,190.871633 745.098707,188.391728 C739.092471,185.911823 733.950157,182.497965 729.667348,178.145804 C725.383067,173.795093 722.028936,168.662704 719.600539,162.744287 C717.17067,156.828771 715.957943,150.431775 715.957943,143.557652 C715.957943,136.684979 717.17067,130.289434 719.600539,124.371017 C722.028936,118.4555 725.383067,113.321662 729.667348,108.9695 C733.950157,104.62024 739.092471,101.203482 745.098707,98.7235763 C751.101998,96.2436711 757.682218,95.0037185 764.834951,95.0037185 C771.987684,95.0037185 778.56496,96.2436711 784.571195,98.7235763 C790.575958,101.203482 795.718273,104.62024 800.002554,108.9695 C804.285363,113.321662 807.639494,118.4555 810.069363,124.371017 C812.49776,130.289434 813.711958,136.684979 813.711958,143.557652 C813.711958,150.431775 812.49776,156.828771 810.069363,162.744287 C807.639494,168.662704 804.285363,173.795093 800.002554,178.145804 C795.718273,182.497965 790.575958,185.911823 784.571195,188.391728 C778.56496,190.871633 771.987684,192.111586 764.834951,192.111586" id="Fill-85" fill="#FFFFFF" fill-rule="nonzero"></path>
                <path d="M841.686061,138.075611 L858.375771,138.075611 C860.846849,138.075611 863.297322,137.879829 865.727191,137.488265 C868.154116,137.096701 870.317597,136.378834 872.217634,135.334664 C874.116198,134.290493 875.637994,132.789498 876.787435,130.831678 C877.933933,128.873858 878.509389,126.328692 878.509389,123.19618 C878.509389,120.063668 877.933933,117.518502 876.787435,115.560682 C875.637994,113.602863 874.116198,112.101867 872.217634,111.057697 C870.317597,110.013526 868.154116,109.295659 865.727191,108.904095 C863.297322,108.512531 860.846849,108.316749 858.375771,108.316749 L841.686061,108.316749 L841.686061,138.075611 Z M828.970092,97.3529573 L861.952137,97.3529573 C867.956901,97.3529573 872.900528,98.1592891 876.787435,99.7676019 C880.671398,101.378815 883.741481,103.422199 885.993267,105.902104 C888.245053,108.382009 889.811002,111.167915 890.695527,114.255469 C891.577108,117.345924 892.020107,120.324711 892.020107,123.19618 C892.020107,126.156114 891.490275,129.004379 890.430611,131.745327 C889.370947,134.486275 887.847679,136.96618 885.860809,139.185043 C883.873939,141.403905 881.44407,143.276161 878.575618,144.79746 C875.704223,146.321659 872.503154,147.257062 868.972412,147.603668 L895.596473,189.762057 L879.701511,189.762057 L855.859069,149.039403 L841.686061,149.039403 L841.686061,189.762057 L828.970092,189.762057 L828.970092,97.3529573 Z" id="Fill-87" fill="#FFFFFF" fill-rule="nonzero"></path>
                <polygon id="Fill-89" fill="#FFFFFF" fill-rule="nonzero" points="928.550556 150.344471 893.051808 97.3528123 909.344144 97.3528123 934.90854 137.944945 961.267685 97.3528123 976.765273 97.3528123 941.266525 150.344471 941.266525 189.761912 928.550556 189.761912"></polygon>
                <path d="M1037.03352,138.075611 L1053.72323,138.075611 C1056.19431,138.075611 1058.64478,137.879829 1061.07465,137.488265 C1063.50158,137.096701 1065.66506,136.378834 1067.5651,135.334664 C1069.46366,134.290493 1070.98546,132.789498 1072.1349,130.831678 C1073.28139,128.873858 1073.85685,126.328692 1073.85685,123.19618 C1073.85685,120.063668 1073.28139,117.518502 1072.1349,115.560682 C1070.98546,113.602863 1069.46366,112.101867 1067.5651,111.057697 C1065.66506,110.013526 1063.50158,109.295659 1061.07465,108.904095 C1058.64478,108.512531 1056.19431,108.316749 1053.72323,108.316749 L1037.03352,108.316749 L1037.03352,138.075611 Z M1024.31755,97.3529573 L1057.2996,97.3529573 C1063.30436,97.3529573 1068.24799,98.1592891 1072.1349,99.7676019 C1076.01886,101.378815 1079.08894,103.422199 1081.34073,105.902104 C1083.59252,108.382009 1085.15846,111.167915 1086.04299,114.255469 C1086.92457,117.345924 1087.36757,120.324711 1087.36757,123.19618 C1087.36757,126.067649 1086.92457,129.049336 1086.04299,132.136891 C1085.15846,135.227346 1083.59252,138.010351 1081.34073,140.490256 C1079.08894,142.970161 1076.01886,145.016445 1072.1349,146.624758 C1068.24799,148.235972 1063.30436,149.039403 1057.2996,149.039403 L1037.03352,149.039403 L1037.03352,189.762057 L1024.31755,189.762057 L1024.31755,97.3529573 Z" id="Fill-91" fill="#FFFFFF" fill-rule="nonzero"></path>
                <path d="M1088.3588,190.545475 C1085.97455,190.545475 1083.92145,189.697086 1082.1995,188.000309 C1080.47754,186.303532 1079.61657,184.280451 1079.61657,181.931067 C1079.61657,179.581683 1080.47754,177.558603 1082.1995,175.861826 C1083.92145,174.165048 1085.97455,173.31666 1088.3588,173.31666 C1090.74304,173.31666 1092.79614,174.165048 1094.51809,175.861826 C1096.24005,177.558603 1097.10103,179.581683 1097.10103,181.931067 C1097.10103,184.280451 1096.24005,186.303532 1094.51809,188.000309 C1092.79614,189.697086 1090.74304,190.545475 1088.3588,190.545475" id="Fill-93" fill="#FFFFFF" fill-rule="nonzero"></path>
                <path d="M1166.24485,178.015137 L1182.27227,178.015137 C1187.65742,178.015137 1192.75705,177.29727 1197.57117,175.861536 C1202.38234,174.425801 1206.59892,172.272199 1210.22091,169.40073 C1213.83995,166.529261 1216.71135,162.939924 1218.83068,158.63272 C1220.95001,154.325517 1222.00967,149.300445 1222.00967,143.557507 C1222.00967,140.600474 1221.52399,137.141659 1220.55263,133.181062 C1219.5798,129.221915 1217.74894,125.46 1215.05562,121.890967 C1212.36084,118.323384 1208.63141,115.29964 1203.86292,112.819735 C1199.09443,110.339829 1192.91306,109.099877 1185.3188,109.099877 L1166.24485,109.099877 L1166.24485,178.015137 Z M1153.52888,97.3529573 L1186.24601,97.3529573 C1192.86891,97.3529573 1198.67351,98.0940284 1203.66423,99.5718199 C1208.65201,101.052512 1212.97898,103.030635 1216.64512,105.51054 C1220.30832,107.990445 1223.35485,110.841611 1225.78472,114.059687 C1228.21165,117.280664 1230.13229,120.585754 1231.54665,123.979308 C1232.95806,127.372863 1233.97504,130.766417 1234.59318,134.159972 C1235.20985,137.553526 1235.52039,140.686038 1235.52039,143.557507 C1235.52039,149.475924 1234.4151,155.197109 1232.20894,160.721062 C1229.99983,166.247915 1226.73253,171.162768 1222.40704,175.469972 C1218.07861,179.777175 1212.71406,183.235991 1206.31339,185.846417 C1199.90979,188.456844 1192.51568,189.762057 1184.12668,189.762057 L1153.52888,189.762057 L1153.52888,97.3529573 Z" id="Fill-95" fill="#FFFFFF" fill-rule="nonzero"></path>
                <path d="M1298.50373,155.957178 L1281.01927,113.537747 L1280.75436,113.537747 L1263.00498,155.957178 L1298.50373,155.957178 Z M1275.72095,97.3531024 L1287.2448,97.3531024 L1327.37958,189.762202 L1312.54428,189.762202 L1303.13976,166.92097 L1258.50141,166.92097 L1249.22935,189.762202 L1234.39405,189.762202 L1275.72095,97.3531024 Z" id="Fill-97" fill="#FFFFFF" fill-rule="nonzero"></path>
                <polygon id="Fill-99" fill="#FFFFFF" fill-rule="nonzero" points="1311.21926 97.3528123 1325.9221 97.3528123 1353.47337 172.533097 1353.73828 172.533097 1382.34921 97.3528123 1396.25731 97.3528123 1359.30152 189.761912 1347.3803 189.761912"></polygon>
                <g id="Fill-101-Clipped">
                    <mask id="mask-24" fill="white">
                        <use xlink:href="#path-23"></use>
                    </mask>
                    <g id="path-23"></g>
                    <polygon id="Fill-101" fill="#FFFFFF" fill-rule="nonzero" mask="url(#mask-24)" points="1405.63416 189.762057 1418.35013 189.762057 1418.35013 97.3529573 1405.63416 97.3529573"></polygon>
                </g>
                <g id="Fill-103-Clipped">
                    <mask id="mask-26" fill="white">
                        <use xlink:href="#path-25"></use>
                    </mask>
                    <g id="path-23"></g>
                    <path d="M1442.23128,170.445336 C1444.52721,173.83889 1447.46337,176.340549 1451.03973,177.950312 C1454.6161,179.561525 1458.30285,180.364956 1462.09998,180.364956 C1464.21783,180.364956 1466.38131,180.038653 1468.59042,179.386046 C1470.79658,178.73344 1472.80553,177.75453 1474.61726,176.449317 C1476.42605,175.144103 1477.90516,173.53434 1479.0546,171.620027 C1480.2011,169.707165 1480.77509,167.488302 1480.77509,164.96344 C1480.77509,161.395857 1479.62712,158.678113 1477.33265,156.805857 C1475.03524,154.935051 1472.18739,153.368795 1468.78911,152.107089 C1465.38788,150.846833 1461.68053,149.627184 1457.66263,148.452492 C1453.64327,147.2778 1449.93444,145.646283 1446.53616,143.557942 C1443.13493,141.469601 1440.28856,138.663392 1437.99262,135.139317 C1435.69521,131.615241 1434.54871,126.851212 1434.54871,120.847231 C1434.54871,118.151241 1435.14477,115.279772 1436.33689,112.232824 C1437.52902,109.187326 1439.40403,106.404321 1441.96636,103.879459 C1444.52721,101.356046 1447.81512,99.2459517 1451.83448,97.5491744 C1455.85237,95.8523972 1460.68562,95.0040085 1466.33863,95.0040085 C1471.45887,95.0040085 1476.35982,95.7015725 1481.04147,97.0923498 C1485.72166,98.4845773 1489.82786,101.31399 1493.36007,105.576236 L1483.02834,114.84325 C1481.43885,112.408302 1479.18706,110.450482 1476.27299,108.969791 C1473.35891,107.490549 1470.04746,106.750928 1466.33863,106.750928 C1462.80495,106.750928 1459.8688,107.207753 1457.53018,108.121402 C1455.19008,109.035051 1453.31212,110.209743 1451.90071,111.645478 C1450.48635,113.081212 1449.49439,114.627165 1448.9204,116.278985 C1448.34495,117.933705 1448.05943,119.456454 1448.05943,120.847231 C1448.05943,124.762871 1449.20593,127.764862 1451.50334,129.853203 C1453.7978,131.941544 1456.64712,133.638321 1460.04541,134.943535 C1463.44516,136.248748 1467.15399,137.42344 1471.17335,138.46761 C1475.19124,139.511781 1478.8986,140.969269 1482.29982,142.840075 C1485.69811,144.712331 1488.54596,147.234293 1490.84337,150.410312 C1493.13931,153.587781 1494.28728,157.960245 1494.28728,163.527705 C1494.28728,167.96543 1493.4263,171.968084 1491.70434,175.535667 C1489.98239,179.1047 1487.66437,182.106691 1484.7503,184.541639 C1481.83622,186.978037 1478.39231,188.848843 1474.41857,190.154056 C1470.44483,191.459269 1466.20618,192.111876 1461.70113,192.111876 C1455.69637,192.111876 1450.00067,191.067705 1444.61552,188.979364 C1439.22742,186.891023 1434.94608,183.672947 1431.76709,179.320786 L1442.23128,170.445336 Z" id="Fill-103" fill="#FFFFFF" fill-rule="nonzero" mask="url(#mask-26)"></path>
                </g>
                <g id="Fill-104-Clipped">
                    <mask id="mask-28" fill="white">
                        <use xlink:href="#path-27"></use>
                    </mask>
                    <g id="path-23"></g>
                    <polygon id="Fill-104" fill="#FFFFFF" fill-rule="nonzero" mask="url(#mask-28)" points="1526.60806 163.657791 1559.19273 163.657791 1559.19273 152.694 1526.60806 152.694"></polygon>
                </g>
                <g id="Fill-105-Clipped">
                    <mask id="mask-30" fill="white">
                        <use xlink:href="#path-29"></use>
                    </mask>
                    <g id="path-23"></g>
                    <path d="M1610.05455,178.015137 L1626.08344,178.015137 C1631.4686,178.015137 1636.56823,177.29727 1641.38087,175.861536 C1646.19351,174.425801 1650.40862,172.272199 1654.03061,169.40073 C1657.65113,166.529261 1660.52105,162.939924 1662.64038,158.63272 C1664.75971,154.325517 1665.82085,149.300445 1665.82085,143.557507 C1665.82085,140.600474 1665.3337,137.141659 1664.36234,133.181062 C1663.38951,129.221915 1661.55864,125.46 1658.86533,121.890967 C1656.17054,118.323384 1652.44259,115.29964 1647.6741,112.819735 C1642.90414,110.339829 1636.72276,109.099877 1629.1285,109.099877 L1610.05455,109.099877 L1610.05455,178.015137 Z M1597.33858,97.3529573 L1630.05718,97.3529573 C1636.68008,97.3529573 1642.48469,98.0940284 1647.47541,99.5718199 C1652.46172,101.052512 1656.79015,103.030635 1660.45483,105.51054 C1664.11803,107.990445 1667.16603,110.841611 1669.59443,114.059687 C1672.02135,117.280664 1673.94347,120.585754 1675.35635,123.979308 C1676.76777,127.372863 1677.78475,130.766417 1678.40289,134.159972 C1679.01955,137.553526 1679.33009,140.686038 1679.33009,143.557507 C1679.33009,149.475924 1678.2248,155.197109 1676.01864,160.721062 C1673.81101,166.247915 1670.54371,171.162768 1666.21675,175.469972 C1661.88979,179.777175 1656.52524,183.235991 1650.12457,185.846417 C1643.71949,188.456844 1636.32539,189.762057 1627.93638,189.762057 L1597.33858,189.762057 L1597.33858,97.3529573 Z" id="Fill-105" fill="#FFFFFF" fill-rule="nonzero" mask="url(#mask-30)"></path>
                </g>
                <g id="Fill-106-Clipped">
                    <mask id="mask-32" fill="white">
                        <use xlink:href="#path-31"></use>
                    </mask>
                    <g id="path-23"></g>
                    <path d="M1689.92614,190.545475 C1687.5419,190.545475 1685.4888,189.697086 1683.76685,188.000309 C1682.04636,186.303532 1681.18539,184.280451 1681.18539,181.931067 C1681.18539,179.581683 1682.04636,177.558603 1683.76685,175.861826 C1685.4888,174.165048 1687.5419,173.31666 1689.92614,173.31666 C1692.31039,173.31666 1694.36496,174.165048 1696.08691,175.861826 C1697.8074,177.558603 1698.66837,179.581683 1698.66837,181.931067 C1698.66837,184.280451 1697.8074,186.303532 1696.08691,188.000309 C1694.36496,189.697086 1692.31039,190.545475 1689.92614,190.545475" id="Fill-106" fill="#FFFFFF" fill-rule="nonzero" mask="url(#mask-32)"></path>
                </g>
                <g id="Fill-107-Clipped">
                    <mask id="mask-34" fill="white">
                        <use xlink:href="#path-33"></use>
                    </mask>
                    <g id="path-23"></g>
                    <path d="M1728.80257,178.015137 L1744.83146,178.015137 C1750.21662,178.015137 1755.31625,177.29727 1760.12889,175.861536 C1764.94153,174.425801 1769.15664,172.272199 1772.77863,169.40073 C1776.39915,166.529261 1779.26908,162.939924 1781.3884,158.63272 C1783.50773,154.325517 1784.56887,149.300445 1784.56887,143.557507 C1784.56887,140.600474 1784.08172,137.141659 1783.11036,133.181062 C1782.13753,129.221915 1780.30666,125.46 1777.61335,121.890967 C1774.91857,118.323384 1771.19061,115.29964 1766.42212,112.819735 C1761.65216,110.339829 1755.47079,109.099877 1747.87653,109.099877 L1728.80257,109.099877 L1728.80257,178.015137 Z M1716.0866,97.3529573 L1748.8052,97.3529573 C1755.42811,97.3529573 1761.23271,98.0940284 1766.22343,99.5718199 C1771.20974,101.052512 1775.53818,103.030635 1779.20285,105.51054 C1782.86605,107.990445 1785.91405,110.841611 1788.34245,114.059687 C1790.76938,117.280664 1792.69149,120.585754 1794.10437,123.979308 C1795.51579,127.372863 1796.53277,130.766417 1797.15091,134.159972 C1797.76757,137.553526 1798.07811,140.686038 1798.07811,143.557507 C1798.07811,149.475924 1796.97283,155.197109 1794.76666,160.721062 C1792.55903,166.247915 1789.29173,171.162768 1784.96477,175.469972 C1780.63781,179.777175 1775.27326,183.235991 1768.87259,185.846417 C1762.46751,188.456844 1755.07341,189.762057 1746.6844,189.762057 L1716.0866,189.762057 L1716.0866,97.3529573 Z" id="Fill-107" fill="#FFFFFF" fill-rule="nonzero" mask="url(#mask-34)"></path>
                </g>
                <g id="Fill-108-Clipped">
                    <mask id="mask-36" fill="white">
                        <use xlink:href="#path-35"></use>
                    </mask>
                    <g id="path-23"></g>
                    <path d="M1811.32436,190.545475 C1808.94011,190.545475 1806.88701,189.697086 1805.16506,188.000309 C1803.44458,186.303532 1802.5836,184.280451 1802.5836,181.931067 C1802.5836,179.581683 1803.44458,177.558603 1805.16506,175.861826 C1806.88701,174.165048 1808.94011,173.31666 1811.32436,173.31666 C1813.7086,173.31666 1815.76317,174.165048 1817.48513,175.861826 C1819.20561,177.558603 1820.06659,179.581683 1820.06659,181.931067 C1820.06659,184.280451 1819.20561,186.303532 1817.48513,188.000309 C1815.76317,189.697086 1813.7086,190.545475 1811.32436,190.545475" id="Fill-108" fill="#FFFFFF" fill-rule="nonzero" mask="url(#mask-36)"></path>
                </g>
                <g id="Fill-109-Clipped">
                    <mask id="mask-38" fill="white">
                        <use xlink:href="#path-37"></use>
                    </mask>
                    <g id="path-23"></g>
                    <path d="M1843.64411,170.445336 C1845.94005,173.83889 1848.8762,176.340549 1852.45257,177.950312 C1856.02894,179.561525 1859.71569,180.364956 1863.51282,180.364956 C1865.63067,180.364956 1867.79415,180.038653 1870.00326,179.386046 C1872.20942,178.73344 1874.21837,177.75453 1876.0301,176.449317 C1877.83889,175.144103 1879.318,173.53434 1880.46744,171.620027 C1881.61394,169.707165 1882.18792,167.488302 1882.18792,164.96344 C1882.18792,161.395857 1881.03995,158.678113 1878.74549,156.805857 C1876.44808,154.935051 1873.60023,153.368795 1870.20195,152.107089 C1866.80072,150.846833 1863.09336,149.627184 1859.07547,148.452492 C1855.05611,147.2778 1851.34728,145.646283 1847.949,143.557942 C1844.54777,141.469601 1841.7014,138.663392 1839.40546,135.139317 C1837.10805,131.615241 1835.96155,126.851212 1835.96155,120.847231 C1835.96155,118.151241 1836.55761,115.279772 1837.74973,112.232824 C1838.94185,109.187326 1840.81687,106.404321 1843.3792,103.879459 C1845.94005,101.356046 1849.22795,99.2459517 1853.24732,97.5491744 C1857.26521,95.8523972 1862.09846,95.0040085 1867.75147,95.0040085 C1872.87171,95.0040085 1877.77266,95.7015725 1882.45431,97.0923498 C1887.13449,98.4845773 1891.24069,101.31399 1894.77291,105.576236 L1884.44118,114.84325 C1882.85169,112.408302 1880.5999,110.450482 1877.68582,108.969791 C1874.77175,107.490549 1871.4603,106.750928 1867.75147,106.750928 C1864.21779,106.750928 1861.28163,107.207753 1858.94301,108.121402 C1856.60292,109.035051 1854.72496,110.209743 1853.31355,111.645478 C1851.89919,113.081212 1850.90723,114.627165 1850.33324,116.278985 C1849.75779,117.933705 1849.47227,119.456454 1849.47227,120.847231 C1849.47227,124.762871 1850.61876,127.764862 1852.91617,129.853203 C1855.21064,131.941544 1858.05996,133.638321 1861.45824,134.943535 C1864.858,136.248748 1868.56682,137.42344 1872.58619,138.46761 C1876.60408,139.511781 1880.31144,140.969269 1883.71266,142.840075 C1887.11095,144.712331 1889.95879,147.234293 1892.2562,150.410312 C1894.55214,153.587781 1895.70011,157.960245 1895.70011,163.527705 C1895.70011,167.96543 1894.83914,171.968084 1893.11718,175.535667 C1891.39523,179.1047 1889.07721,182.106691 1886.16314,184.541639 C1883.24906,186.978037 1879.80515,188.848843 1875.83141,190.154056 C1871.85767,191.459269 1867.61901,192.111876 1863.11397,192.111876 C1857.10921,192.111876 1851.41351,191.067705 1846.02836,188.979364 C1840.64026,186.891023 1836.35892,183.672947 1833.17993,179.320786 L1843.64411,170.445336 Z" id="Fill-109" fill="#FFFFFF" fill-rule="nonzero" mask="url(#mask-38)"></path>
                </g>
                <g id="Fill-110-Clipped">
                    <mask id="mask-40" fill="white">
                        <use xlink:href="#path-39"></use>
                    </mask>
                    <g id="path-23"></g>
                    <path d="M1917.92613,190.545475 C1915.54188,190.545475 1913.48878,189.697086 1911.76683,188.000309 C1910.04635,186.303532 1909.18537,184.280451 1909.18537,181.931067 C1909.18537,179.581683 1910.04635,177.558603 1911.76683,175.861826 C1913.48878,174.165048 1915.54188,173.31666 1917.92613,173.31666 C1920.31037,173.31666 1922.36494,174.165048 1924.0869,175.861826 C1925.80738,177.558603 1926.66836,179.581683 1926.66836,181.931067 C1926.66836,184.280451 1925.80738,186.303532 1924.0869,188.000309 C1922.36494,189.697086 1920.31037,190.545475 1917.92613,190.545475" id="Fill-110" fill="#FFFFFF" fill-rule="nonzero" mask="url(#mask-40)"></path>
                </g>
            </g>
        </g>
    </g>
</svg>